<?xml version="1.0" encoding="utf-8"?>
<!-- Generator: Adobe Illustrator 25.0.1, SVG Export Plug-In . SVG Version: 6.00 Build 0)  -->
<svg version="1.1" id="Lag_1" xmlns="http://www.w3.org/2000/svg" xmlns:xlink="http://www.w3.org/1999/xlink" x="0px" y="0px"
	 viewBox="0 0 4169 913" style="enable-background:new 0 0 4169 913;" xml:space="preserve">
<style type="text/css">
	.st0{fill:#0D0C22;}
	.st1{fill:#E69F00;}
	.st2{enable-background:new    ;}
</style>
<path class="st0" d="M564.7,212.4l-0.6-0.4l-1.5-0.4C563.2,212.1,564,212.3,564.7,212.4z"/>
<path class="st0" d="M573.8,277.6l-0.7,0.2L573.8,277.6z"/>
<path class="st0" d="M565,212.3c-0.1,0-0.2,0-0.3-0.1v0.2C564.8,212.4,564.9,212.3,565,212.3z"/>
<path class="st0" d="M564.7,212.4L564.7,212.4L564.7,212.4L564.7,212.4z"/>
<path class="st0" d="M573.3,277.5l1.1-0.6l0.4-0.2l0.4-0.4C574.4,276.6,573.8,277,573.3,277.5L573.3,277.5z"/>
<path class="st0" d="M566.5,213.8l-1-1l-0.7-0.4C565.2,213.1,565.8,213.6,566.5,213.8L566.5,213.8z"/>
<path class="st0" d="M307,846.7c-0.8,0.4-1.5,0.9-2.1,1.6l0.7-0.4C306,847.5,306.6,847.1,307,846.7z"/>
<path class="st0" d="M457.7,817.1c0-0.9-0.5-0.8-0.3,2.5c0-0.3,0.1-0.5,0.2-0.8C457.6,818.2,457.6,817.7,457.7,817.1z"/>
<path class="st0" d="M442.1,846.7c-0.8,0.4-1.5,0.9-2.1,1.6l0.6-0.4C441.1,847.5,441.7,847.1,442.1,846.7z"/>
<path class="st0" d="M200.8,853.8c-0.6-0.5-1.4-0.9-2.2-1c0.7,0.3,1.3,0.6,1.8,0.9L200.8,853.8z"/>
<path class="st0" d="M176.9,830.9c-0.1-1-0.4-1.9-0.9-2.8C176.4,829.1,176.7,830,176.9,830.9L176.9,830.9z"/>
<path class="st1" d="M337.4,421.8c-32.8,14-70,30-118.2,30c-20.2,0-40.3-2.8-59.7-8.2L192.8,786c2.4,29.7,27.2,52.5,57,52.5
	c0,0,47.3,2.5,63.1,2.5c17,0,67.9-2.5,67.9-2.5c29.8,0,54.6-22.8,57-52.5l35.8-378.5c-16-5.5-32.1-9.1-50.2-9.1
	C391.9,398.4,366.6,409.2,337.4,421.8z"/>
<path class="st0" d="M56.2,275.6l0.6,0.5l0.4,0.2C56.8,276.1,56.5,275.9,56.2,275.6z"/>
<path class="st0" d="M627.9,244l-5-25.3c-4.5-22.7-14.7-44.2-38.1-52.4c-7.5-2.6-16-3.8-21.7-9.2s-7.4-13.9-8.8-21.7
	c-2.5-14.4-4.8-28.8-7.3-43.1c-2.2-12.3-3.9-26.2-9.6-37.5c-7.4-15.2-22.7-24.1-37.9-30c-7.8-2.9-15.7-5.4-23.8-7.4
	c-38-10-77.9-13.7-117-15.8c-46.9-2.6-94-1.8-140.8,2.4c-34.8,3.2-71.5,7-104.6,19c-12.1,4.4-24.6,9.7-33.8,19
	c-11.3,11.5-15,29.2-6.7,43.6c5.9,10.2,15.8,17.4,26.3,22.1c13.7,6.1,28,10.8,42.7,13.9c40.9,9,83.3,12.6,125.1,14.1
	c46.3,1.9,92.7,0.4,138.8-4.5c11.4-1.2,22.8-2.7,34.1-4.5c13.4-2.1,22-19.5,18-31.7c-4.7-14.6-17.4-20.2-31.7-18
	c-2.1,0.3-4.2,0.6-6.3,1l-1.5,0.2c-4.9,0.6-9.7,1.2-14.6,1.7c-10,1.1-20.1,2-30.2,2.7c-22.6,1.6-45.2,2.3-67.8,2.3
	c-22.2,0-44.5-0.6-66.7-2.1c-10.1-0.7-20.2-1.5-30.3-2.5c-4.6-0.5-9.2-1-13.7-1.6l-4.3-0.6l-1-0.1l-4.5-0.7
	c-9.2-1.4-18.4-3-27.5-4.9c-0.9-0.2-1.7-0.7-2.3-1.4c-1.4-1.8-1.1-4.4,0.6-5.8c0.5-0.4,1.1-0.7,1.7-0.8h0.3
	c7.9-1.7,15.9-3.1,23.8-4.4c2.7-0.4,5.3-0.8,8-1.2h0.1c5-0.3,10-1.2,15-1.8c43.3-4.5,86.8-6,130.3-4.6c21.1,0.6,42.2,1.9,63.2,4
	c4.5,0.5,9,1,13.5,1.5c1.7,0.2,3.5,0.5,5.2,0.7l3.5,0.5c10.2,1.5,20.3,3.4,30.4,5.5c14.9,3.2,34,4.3,40.6,20.6
	c2.1,5.2,3.1,11,4.2,16.4l1.5,6.9c0,0.1,0.1,0.3,0.1,0.4c3.5,16.4,7,32.7,10.5,49.1c0.3,1.2,0.3,2.5,0,3.7c-0.8,3.7-3.8,6.6-7.6,7.1
	h-0.1l-2.1,0.3l-2.1,0.3c-6.7,0.9-13.5,1.7-20.2,2.5c-13.3,1.5-26.6,2.8-39.9,3.9c-26.5,2.2-53,3.6-79.6,4.3
	c-13.6,0.4-27.1,0.5-40.6,0.5c-53.9,0-107.8-3.2-161.3-9.4c-5.8-0.7-11.6-1.4-17.4-2.2c4.5,0.6-3.3-0.4-4.8-0.7
	c-3.7-0.5-7.4-1.1-11.1-1.6c-12.4-1.9-24.7-4.1-37-6.1c-14.9-2.5-29.2-1.2-42.7,6.1c-11.1,6.1-20,15.4-25.7,26.6
	c-5.8,12-7.6,25.1-10.2,38.1s-6.7,26.9-5.1,40.1c3.3,28.7,23.3,52,52.2,57.2c27.1,4.9,54.4,8.9,81.7,12.3
	c107.4,13.1,215.8,14.7,323.5,4.7c8.8-0.8,17.5-1.7,26.3-2.7c10.1-1.1,19.2,6.2,20.3,16.3c0.1,1.3,0.1,2.6,0,3.9l-2.7,26.5
	c-5.5,53.6-11,107.1-16.5,160.7c-5.7,56.2-11.5,112.5-17.3,168.7l-4.9,47.5c-1.6,15.6-1.8,31.7-4.8,47.1
	c-4.7,24.2-21.1,39.1-45,44.5c-21.9,5-44.3,7.6-66.8,7.8c-24.9,0.1-49.8-1-74.8-0.8c-26.6,0.2-59.2-2.3-79.7-22.1
	c-18-17.4-20.5-44.6-23-68.2c-3.3-31.2-6.5-62.3-9.7-93.5l-18-173.3l-11.7-112.1c-0.2-1.9-0.4-3.7-0.6-5.5
	c-1.4-13.4-10.9-26.5-25.8-25.8c-12.8,0.6-27.3,11.4-25.8,25.8l8.7,83.1l17.9,172c5.1,48.8,10.2,97.7,15.3,146.5
	c1,9.4,1.9,18.7,2.9,28.1c5.6,51.2,44.7,78.7,93,86.5c28.2,4.5,57.2,5.5,85.9,6c36.8,0.6,73.9,2,110-4.7
	c53.6-9.8,93.8-45.6,99.5-101.1c1.6-16,3.3-32,4.9-48.1c5.4-53,10.9-106,16.3-159l17.8-173.2l8.1-79.4c0.8-8.1,6.9-14.7,14.8-16.2
	c15.3-3,30-8.1,40.8-19.7C630.5,292.6,634,268.4,627.9,244z M51.7,261.1c0.2-0.1-0.2,1.9-0.4,2.8C51.3,262.6,51.4,261.3,51.7,261.1z
	 M53.2,272.6c0.1-0.1,0.5,0.4,0.9,1C53.5,273.1,53.1,272.7,53.2,272.6L53.2,272.6z M54.7,274.6C55.2,275.5,55.5,276,54.7,274.6z
	 M57.6,277L57.6,277c0.1,0.1,0.2,0.2,0.2,0.3C57.8,277.2,57.7,277.1,57.6,277L57.6,277z M571.6,273.4c-5.5,5.2-13.8,7.7-22,8.9
	c-91.9,13.6-185.1,20.5-278,17.5c-66.5-2.3-132.2-9.6-198-19c-6.4-0.9-13.4-2.1-17.9-6.8c-8.4-9-4.2-27-2.1-37.9
	c2-9.9,5.8-23.2,17.6-24.6c18.4-2.2,39.8,5.6,58.1,8.4c21.9,3.3,44,6,66.1,8c94.4,8.6,190.3,7.3,284.2-5.3c17.1-2.3,34.2-5,51.2-8
	c15.2-2.7,31.9-7.8,41.1,7.9c6.3,10.7,7.1,25,6.1,37C577.8,264.8,575.5,269.8,571.6,273.4L571.6,273.4z"/>
<g class="st2">
	<path d="M809.1,589.2l42-341.3h109.5c18.9,0,35,1.9,48.5,5.5c13.5,3.7,24.5,8.9,33,15.7c8.6,6.8,14.9,14.9,19,24.5
		c4.1,9.6,6.1,20.3,6.1,32.1c0,9.8-1.3,19.1-3.9,28c-2.6,8.9-6.6,17.1-12.2,24.7c-5.5,7.6-12.5,14.3-21,20.3
		c-8.5,6-18.6,10.9-30.4,14.9c19.4,4.9,33.7,12.8,43.2,23.7c9.4,10.9,14.2,24.8,14.2,41.7c0,15.7-2.9,30.3-8.7,43.8
		c-5.8,13.5-14.2,25.1-25.3,34.9c-11,9.8-24.4,17.5-40.2,23.1c-15.8,5.6-33.7,8.4-53.7,8.4H809.1z M888.6,438.8l-12.5,102.7h57.8
		c11,0,20.5-1.5,28.3-4.5c7.9-3,14.4-7.2,19.5-12.6c5.1-5.4,8.9-12,11.3-19.6c2.4-7.6,3.7-16,3.7-25.1c0-12.4-3.9-22.3-11.8-29.7
		c-7.9-7.4-20.8-11.1-38.7-11.1H888.6z M893.8,396.6h45.3c21.1,0,37.3-5,48.7-14.9c11.4-9.9,17.1-25.1,17.1-45.5
		c0-14.3-4.1-24.7-12.2-31.3c-8.1-6.5-20.7-9.8-37.9-9.8h-48.6L893.8,396.6z"/>
	<path d="M1172.3,347c-3.1,26.6-5.8,49.1-8,67.5c-2.2,18.4-4,33.7-5.4,46c-1.4,12.3-2.5,21.9-3.3,29c-0.8,7.1-1.4,12.4-1.8,16
		c-0.4,3.6-0.6,6.1-0.7,7.3c-0.1,1.3-0.1,2.3-0.1,3.1c0,10.4,1.9,17.8,5.8,22.3c3.9,4.5,9.7,6.7,17.6,6.7c6.1,0,12.5-1.7,19-5.1
		c6.5-3.4,12.8-8.2,18.9-14.5c6.1-6.3,11.7-13.9,16.9-22.9c5.2-9,9.6-19,13.2-30l15.1-125.6h58.3l-29.3,242.1h-29.5
		c-2.7,0-5.2-0.4-7.7-1.1c-2.4-0.7-4.6-1.8-6.6-3.2c-2-1.4-3.5-3.2-4.7-5.4c-1.2-2.2-1.8-4.8-1.8-7.8v-0.9l1.4-29.5
		c-12.3,17.3-25.7,30.2-40.2,38.7c-14.6,8.5-29.6,12.7-45.2,12.7c-9,0-17.1-1.6-24.4-4.8c-7.3-3.2-13.6-7.9-18.8-14
		s-9.2-13.7-12-22.8c-2.8-9-4.2-19.4-4.2-31c0-3.1,0.1-6.3,0.2-9.4c0.2-3.1,0.5-6.4,0.9-9.9L1114,347H1172.3z"/>
	<path d="M1417,656.2c-4.1,8-10.4,12-18.9,12h-43.2l53.8-97.5L1347.6,347h48.9c4.2,0,7.4,1.1,9.6,3.2s3.6,4.7,4.4,7.7l29.7,125.6
		c0.9,4.1,1.7,8.1,2.2,12c0.5,3.9,1,7.9,1.3,12c1.7-4.1,3.5-8.1,5.3-12.2c1.8-4,3.7-8.1,5.5-12.2l59.7-125.6
		c1.6-3.1,3.9-5.7,6.8-7.7c3-2,6.1-3,9.2-3h46.7L1417,656.2z"/>
	<path d="M1667.4,589.2l29.5-242.4h29.5c6,0,10.7,1.4,14.2,4.2c3.5,2.8,5.2,7.3,5.2,13.5c0,0.2,0,0.4,0,0.7c0,0.3,0,1.4-0.1,3.2
		c-0.1,1.8-0.2,4.6-0.4,8.3c-0.2,3.7-0.4,8.9-0.7,15.7c10.9-16.5,22.7-28.8,35.4-36.9c12.7-8.1,26-12.2,39.9-12.2
		c14.9,0,26.7,5,35.3,14.9c8.6,9.9,13.6,24.2,15,43c11.3-19.8,23.9-34.4,37.6-43.8c13.8-9.4,28.8-14,45-14
		c18.1,0,32.1,6.1,41.9,18.3c9.8,12.2,14.8,29.8,14.8,52.7c0,3.1-0.1,6.5-0.2,10c-0.2,3.5-0.5,7.1-0.9,10.7L1990,589.2h-57.6
		c3.1-26.7,5.8-49.4,8-68.1c2.2-18.6,4-34.2,5.4-46.7c1.4-12.5,2.5-22.3,3.3-29.4c0.8-7.1,1.4-12.5,1.8-16.4
		c0.4-3.9,0.6-6.5,0.7-7.8c0.1-1.3,0.1-2.4,0.1-3.2c0-9.4-1.6-16.2-4.7-20.4c-3.1-4.2-8.3-6.3-15.3-6.3c-6,0-11.8,1.6-17.5,4.7
		c-5.7,3.1-11.1,7.7-16.2,13.7c-5.1,6-9.8,13.3-14.2,21.9c-4.3,8.7-8.1,18.4-11.4,29.3l-15.1,128.6H1800l18.2-154.1
		c0.3-3.3,0.6-6.4,0.8-9.3c0.2-2.9,0.4-5.6,0.4-8.1c0-9.4-1.5-16.2-4.6-20.4c-3.1-4.2-8.1-6.3-15.2-6.3c-6.1,0-12.1,1.7-17.9,5
		c-5.8,3.3-11.3,8.1-16.4,14.3c-5.1,6.2-9.8,13.8-14.2,22.7c-4.3,8.9-8.1,18.8-11.4,29.9l-15.1,126.5H1667.4z"/>
	<path d="M2244.9,403.2c0,10.9-2.2,20.8-6.5,29.7c-4.3,9-12.1,17-23.2,24.1c-11.2,7.1-26.3,13.2-45.4,18.3
		c-19.1,5.1-43.5,9.2-73,12.2v3.1c0,38.1,16.1,57.1,48.4,57.1c6.9,0,13.1-0.7,18.4-2c5.3-1.3,10-3,14-4.8c4-1.9,7.6-4,10.9-6.4
		c3.2-2.4,6.2-4.5,9-6.4c2.8-1.9,5.5-3.5,8.1-4.8c2.7-1.3,5.6-2,8.7-2c1.9,0,3.8,0.4,5.7,1.3c1.9,0.9,3.5,2.2,4.7,3.9l14.9,17.9
		c-8.3,8.3-16.5,15.6-24.5,21.7c-8,6.1-16.2,11.2-24.5,15.1c-8.3,3.9-17.2,6.8-26.4,8.7c-9.3,1.9-19.4,2.8-30.4,2.8
		c-14.2,0-27-2.4-38.5-7.2c-11.5-4.8-21.3-11.6-29.5-20.3c-8.2-8.7-14.5-19.3-19-31.6c-4.5-12.3-6.7-26.2-6.7-41.4
		c0-12.7,1.4-25.3,4.1-37.5c2.8-12.3,6.7-23.9,11.9-34.9c5.2-11,11.6-21.2,19.1-30.4c7.6-9.3,16.1-17.3,25.6-24.1
		c9.5-6.8,20-12,31.4-15.8c11.4-3.8,23.6-5.7,36.7-5.7c12.7,0,23.9,1.8,33.4,5.4c9.5,3.6,17.5,8.3,23.8,14
		c6.4,5.7,11.1,12.2,14.3,19.2C2243.3,389.5,2244.9,396.4,2244.9,403.2z M2165.4,384.3c-7.9,0-15.2,1.6-21.9,4.8
		c-6.8,3.2-12.9,7.8-18.3,13.6c-5.4,5.8-10.1,12.8-14.2,20.9c-4,8.1-7.2,17-9.6,26.5c19.5-2.7,35.2-5.6,47.1-8.7
		c11.9-3.1,21.1-6.6,27.6-10.4c6.5-3.8,10.9-7.8,13-12s3.2-8.8,3.2-13.7c0-2.4-0.5-4.8-1.5-7.3c-1-2.5-2.6-4.8-4.7-6.7
		c-2.1-2-4.9-3.6-8.3-5C2174.4,385,2170.2,384.3,2165.4,384.3z"/>
	<path d="M2545.1,589.2h-30.7c-7.1,0-12-1.7-14.9-5s-4.2-7.5-4.2-12.5l1.9-33c-10.7,16.7-22.7,29.9-36.1,39.5
		c-13.4,9.7-28.1,14.5-44.1,14.5c-9.1,0-17.7-1.8-25.6-5.4c-7.9-3.6-14.9-9-20.8-16.2c-5.9-7.2-10.5-16.1-13.9-26.9
		c-3.4-10.8-5.1-23.4-5.1-37.9c0-14.5,1.8-28.6,5.4-42.2c3.6-13.7,8.8-26.5,15.5-38.6c6.7-12,14.8-23.1,24.2-33.2
		c9.4-10.1,20-18.7,31.7-26c11.7-7.2,24.4-12.9,38-16.9c13.6-4,28-6,43.1-6c10.9,0,21.7,0.8,32.7,2.4c10.9,1.6,21.7,4.4,32.2,8.5
		L2545.1,589.2z M2439.8,545c6.4,0,12.8-2.2,19-6.6c6.2-4.4,12.1-10.5,17.6-18.3c5.5-7.8,10.6-17,15.3-27.5
		c4.7-10.5,8.8-21.9,12.3-34l9.2-73.2c-4.2-0.5-8.2-0.7-11.8-0.7c-13.1,0-25.2,3-36.3,9c-11.2,6-20.8,14-29,24.2
		c-8.2,10.1-14.6,21.9-19.2,35.4c-4.6,13.5-7,27.7-7,42.6c0,17,2.7,29.4,8,37.3C2423.2,541.1,2430.5,545,2439.8,545z"/>
	<path d="M2852.7,568.4c-7.3,6-14.8,10.8-22.3,14.4c-7.6,3.6-15.5,6.2-23.8,7.7c-8.3,1.5-17.5,2.2-27.4,2.2c-14,0-26.5-2.4-37.6-7.2
		c-11.1-4.8-20.5-11.6-28.2-20.4c-7.7-8.8-13.6-19.4-17.6-31.9c-4-12.4-6-26.3-6-41.5c0-19.7,3.1-38.4,9.4-56.3
		c6.3-17.9,15.1-33.6,26.4-47.2c11.3-13.6,24.8-24.5,40.4-32.6c15.6-8.1,32.6-12.2,51-12.2c16,0,29.7,2.8,40.9,8.5
		c11.2,5.7,21.3,14.2,30.1,25.5l-18.6,22.2c-1.4,1.4-3,2.7-4.8,3.9c-1.8,1.2-3.8,1.8-6,1.8c-2.7,0-5.1-0.8-7.3-2.5
		c-2.2-1.7-4.8-3.4-7.7-5.3c-2.9-1.9-6.5-3.7-10.9-5.3c-4.3-1.7-10-2.5-16.9-2.5c-9,0-17.5,2.4-25.7,7.3
		c-8.2,4.9-15.4,11.8-21.6,20.8c-6.2,9-11.2,19.7-14.9,32.3c-3.7,12.6-5.5,26.5-5.5,41.8c0,17.8,3.9,31.5,11.8,41.2
		c7.9,9.7,18.5,14.5,31.9,14.5c9,0,16.4-1.3,22.3-3.9c5.9-2.6,10.9-5.4,15-8.5c4.1-3.1,7.7-5.9,11-8.5c3.2-2.6,6.7-3.9,10.5-3.9
		c1.9,0,3.7,0.5,5.5,1.5c1.8,1,3.4,2.3,4.8,3.9l14.9,17.9C2867.7,555,2860,562.4,2852.7,568.4z"/>
	<path d="M2986.8,592.7c-13.4,0-25.8-2.2-37.2-6.7c-11.4-4.5-21.2-11.1-29.5-19.7c-8.3-8.7-14.8-19.3-19.5-31.9
		c-4.7-12.6-7.1-27-7.1-43.2c0-20.9,3.3-40.4,10-58.5c6.7-18.1,15.8-33.7,27.4-47c11.6-13.2,25.1-23.6,40.5-31.2
		c15.4-7.6,31.9-11.3,49.3-11.3c13.4,0,25.8,2.2,37.2,6.7c11.4,4.5,21.3,11.1,29.6,19.7c8.3,8.7,14.9,19.3,19.6,31.9
		c4.7,12.6,7.1,27,7.1,43.2c0,20.8-3.4,40.2-10.1,58.2c-6.8,18-15.9,33.7-27.5,47c-11.6,13.3-25.1,23.8-40.5,31.4
		C3020.8,588.9,3004.3,592.7,2986.8,592.7z M2992,547.9c9.8,0,18.6-2.8,26.4-8.4c7.9-5.6,14.6-13.1,20.2-22.4
		c5.6-9.4,9.9-20.3,12.9-32.7c3-12.4,4.5-25.5,4.5-39.2c0-19.7-3.3-34.1-10-43.4c-6.7-9.3-16.8-13.9-30.3-13.9
		c-9.8,0-18.6,2.8-26.4,8.3c-7.9,5.5-14.6,13-20.1,22.4c-5.5,9.4-9.8,20.4-12.7,32.8c-3,12.4-4.5,25.6-4.5,39.4
		c0,19.7,3.3,34.1,9.9,43.3C2968.4,543.3,2978.5,547.9,2992,547.9z"/>
	<path d="M3226.1,390.7l-22.9,188.6l-12,44.4c-2.2,7.7-5.6,13.6-10.3,17.7c-4.6,4.1-11.2,6.1-19.7,6.1h-23.4l30.9-256.8l-18.6-3.3
		c-3.5-0.6-6.3-1.9-8.5-3.9c-2.2-2-3.3-4.8-3.3-8.4c0-0.2,0-0.5,0.1-0.9c0.1-0.5,0.2-1.5,0.4-3.2c0.2-1.7,0.4-4.2,0.8-7.6
		c0.4-3.4,1-8.1,1.8-14.3h32.6l2.1-17.9c1.7-13.8,5.4-26.3,11-37.3c5.6-11,12.7-20.4,21.2-28.1c8.6-7.7,18.4-13.6,29.6-17.7
		c11.2-4.1,23.2-6.1,36.1-6.1c10.1,0,19.4,1.5,27.8,4.5l-5.2,30.2c-0.3,1.7-1.1,3.1-2.2,4.1c-1.2,1-2.6,1.8-4.4,2.2
		c-1.7,0.5-3.7,0.8-5.8,0.9c-2.1,0.2-4.3,0.2-6.5,0.2c-6.3,0-12.1,0.9-17.3,2.6c-5.3,1.7-9.9,4.5-13.9,8.4c-4,3.9-7.3,8.9-9.9,15.1
		c-2.6,6.2-4.4,13.8-5.5,22.8l-1.9,16h54.3l-5.4,41.5H3226.1z"/>
	<path d="M3376.2,390.7l-22.9,188.6l-12,44.4c-2.2,7.7-5.6,13.6-10.3,17.7c-4.6,4.1-11.2,6.1-19.7,6.1H3288l30.9-256.8l-18.6-3.3
		c-3.5-0.6-6.3-1.9-8.5-3.9c-2.2-2-3.3-4.8-3.3-8.4c0-0.2,0-0.5,0.1-0.9c0.1-0.5,0.2-1.5,0.4-3.2c0.2-1.7,0.4-4.2,0.8-7.6
		c0.4-3.4,1-8.1,1.8-14.3h32.6l2.1-17.9c1.7-13.8,5.4-26.3,11-37.3c5.6-11,12.7-20.4,21.2-28.1c8.6-7.7,18.4-13.6,29.6-17.7
		c11.2-4.1,23.2-6.1,36.1-6.1c10.1,0,19.4,1.5,27.8,4.5l-5.2,30.2c-0.3,1.7-1.1,3.1-2.2,4.1c-1.2,1-2.6,1.8-4.4,2.2
		c-1.7,0.5-3.7,0.8-5.8,0.9c-2.1,0.2-4.3,0.2-6.5,0.2c-6.3,0-12.1,0.9-17.3,2.6c-5.3,1.7-9.9,4.5-13.9,8.4c-4,3.9-7.3,8.9-9.9,15.1
		c-2.6,6.2-4.4,13.8-5.5,22.8l-1.9,16h54.3l-5.4,41.5H3376.2z"/>
	<path d="M3641,403.2c0,10.9-2.2,20.8-6.5,29.7c-4.3,9-12.1,17-23.2,24.1c-11.2,7.1-26.3,13.2-45.4,18.3c-19.1,5.1-43.5,9.2-73,12.2
		v3.1c0,38.1,16.1,57.1,48.4,57.1c6.9,0,13.1-0.7,18.4-2c5.3-1.3,10-3,14-4.8c4-1.9,7.6-4,10.9-6.4c3.2-2.4,6.2-4.5,9-6.4
		c2.8-1.9,5.5-3.5,8.1-4.8c2.7-1.3,5.6-2,8.7-2c1.9,0,3.8,0.4,5.7,1.3c1.9,0.9,3.5,2.2,4.7,3.9l14.9,17.9
		c-8.3,8.3-16.5,15.6-24.5,21.7c-8,6.1-16.2,11.2-24.5,15.1c-8.3,3.9-17.2,6.8-26.4,8.7c-9.3,1.9-19.4,2.8-30.4,2.8
		c-14.2,0-27-2.4-38.5-7.2c-11.5-4.8-21.3-11.6-29.5-20.3c-8.2-8.7-14.5-19.3-19-31.6c-4.5-12.3-6.7-26.2-6.7-41.4
		c0-12.7,1.4-25.3,4.1-37.5c2.8-12.3,6.7-23.9,11.9-34.9c5.2-11,11.6-21.2,19.1-30.4c7.6-9.3,16.1-17.3,25.6-24.1
		c9.5-6.8,20-12,31.4-15.8c11.4-3.8,23.6-5.7,36.7-5.7c12.7,0,23.9,1.8,33.4,5.4c9.5,3.6,17.5,8.3,23.8,14
		c6.4,5.7,11.1,12.2,14.3,19.2C3639.5,389.5,3641,396.4,3641,403.2z M3561.5,384.3c-7.9,0-15.2,1.6-21.9,4.8
		c-6.8,3.2-12.9,7.8-18.3,13.6c-5.4,5.8-10.1,12.8-14.2,20.9c-4,8.1-7.2,17-9.6,26.5c19.5-2.7,35.2-5.6,47.1-8.7
		c11.9-3.1,21.1-6.6,27.6-10.4c6.5-3.8,10.9-7.8,13-12s3.2-8.8,3.2-13.7c0-2.4-0.5-4.8-1.5-7.3c-1-2.5-2.6-4.8-4.7-6.7
		c-2.1-2-4.9-3.6-8.3-5C3570.5,385,3566.4,384.3,3561.5,384.3z"/>
	<path d="M3864.3,403.2c0,10.9-2.2,20.8-6.5,29.7c-4.3,9-12.1,17-23.2,24.1c-11.2,7.1-26.3,13.2-45.4,18.3
		c-19.1,5.1-43.5,9.2-73,12.2v3.1c0,38.1,16.1,57.1,48.4,57.1c6.9,0,13.1-0.7,18.4-2c5.3-1.3,10-3,14-4.8c4-1.9,7.6-4,10.9-6.4
		c3.2-2.4,6.2-4.5,9-6.4c2.8-1.9,5.5-3.5,8.1-4.8c2.7-1.3,5.6-2,8.7-2c1.9,0,3.8,0.4,5.7,1.3c1.9,0.9,3.5,2.2,4.7,3.9l14.9,17.9
		c-8.3,8.3-16.5,15.6-24.5,21.7c-8,6.1-16.2,11.2-24.5,15.1c-8.3,3.9-17.2,6.8-26.4,8.7c-9.3,1.9-19.4,2.8-30.4,2.8
		c-14.2,0-27-2.4-38.5-7.2c-11.5-4.8-21.3-11.6-29.5-20.3c-8.2-8.7-14.5-19.3-19-31.6c-4.5-12.3-6.7-26.2-6.7-41.4
		c0-12.7,1.4-25.3,4.1-37.5c2.8-12.3,6.7-23.9,11.9-34.9c5.2-11,11.6-21.2,19.1-30.4c7.6-9.3,16.1-17.3,25.6-24.1
		c9.5-6.8,20-12,31.4-15.8c11.4-3.8,23.6-5.7,36.7-5.7c12.7,0,23.9,1.8,33.4,5.4c9.5,3.6,17.5,8.3,23.8,14
		c6.4,5.7,11.1,12.2,14.3,19.2C3862.7,389.5,3864.3,396.4,3864.3,403.2z M3784.8,384.3c-7.9,0-15.2,1.6-21.9,4.8
		c-6.8,3.2-12.9,7.8-18.3,13.6c-5.4,5.8-10.1,12.8-14.2,20.9c-4,8.1-7.2,17-9.6,26.5c19.5-2.7,35.2-5.6,47.1-8.7
		c11.9-3.1,21.1-6.6,27.6-10.4c6.5-3.8,10.9-7.8,13-12s3.2-8.8,3.2-13.7c0-2.4-0.5-4.8-1.5-7.3c-1-2.5-2.6-4.8-4.7-6.7
		c-2.1-2-4.9-3.6-8.3-5C3793.8,385,3789.6,384.3,3784.8,384.3z"/>
</g>
</svg>
