<svg xmlns="http://www.w3.org/2000/svg" viewBox="0 0 4169 913">
  <defs>
    <style>
      .a {
        fill: #0d0c22;
      }

      .b {
        fill: #e69f00;
      }

      .c {
        font-size: 472px;
        font-family: Lato-BlackItalic, Lato;
        font-weight: 800;
        font-style: italic;
      }
    </style>
  </defs>
  <path class="a" d="M564.72,212.38l-.62-.37-1.45-.44a3.43,3.43,0,0,0,2.07.81Z"/>
  <path class="a" d="M573.85,277.61l-.7.19Z"/>
  <path class="a" d="M565,212.28a1.22,1.22,0,0,1-.26-.06v.17a.47.47,0,0,0,.26-.11Z"/>
  <path class="a" d="M564.73,212.39h.09v-.06Z"/>
  <path class="a" d="M573.29,277.49l1.06-.6.39-.22.36-.39a6.11,6.11,0,0,0-1.81,1.21Z"/>
  <path class="a" d="M566.55,213.8l-1-1-.7-.38a2.87,2.87,0,0,0,1.73,1.36Z"/>
  <path class="a" d="M307,846.74a5.56,5.56,0,0,0-2.1,1.62l.66-.41C306,847.54,306.58,847.06,307,846.74Z"/>
  <path class="a" d="M457.7,817.09c0-.94-.45-.77-.34,2.55a4.36,4.36,0,0,1,.16-.8C457.58,818.25,457.63,817.67,457.7,817.09Z"/>
  <path class="a" d="M442.07,846.74a5.41,5.41,0,0,0-2.1,1.62l.65-.41C441.06,847.54,441.69,847.06,442.07,846.74Z"/>
  <path class="a" d="M200.81,853.79a4.51,4.51,0,0,0-2.21-1c.66.32,1.32.64,1.76.89Z"/>
  <path class="a" d="M176.92,830.92a7.15,7.15,0,0,0-.87-2.75,22.82,22.82,0,0,1,.84,2.7Z"/>
  <path class="b" d="M337.38,421.76c-32.8,14-70,30-118.25,30a223.81,223.81,0,0,1-59.69-8.23L192.8,786a57.23,57.23,0,0,0,57,52.52s47.3,2.46,63.08,2.46c17,0,67.93-2.46,67.93-2.46a57.21,57.21,0,0,0,57-52.52L473.6,407.51c-16-5.45-32.08-9.07-50.24-9.07C391.94,398.42,366.62,409.25,337.38,421.76Z"/>
  <path class="a" d="M56.17,275.64l.57.53.36.22a4.78,4.78,0,0,0-.93-.75Z"/>
  <path class="a" d="M627.87,244l-5-25.33c-4.51-22.74-14.74-44.22-38.08-52.44-7.48-2.63-16-3.76-21.7-9.2s-7.43-13.89-8.76-21.73c-2.46-14.38-4.77-28.77-7.28-43.13-2.18-12.35-3.9-26.21-9.56-37.54-7.37-15.2-22.66-24.1-37.87-30a217.67,217.67,0,0,0-23.81-7.37c-38-10-77.94-13.71-117-15.81A981.16,981.16,0,0,0,218,3.83c-34.83,3.16-71.52,7-104.62,19-12.1,4.41-24.57,9.7-33.77,19.05-11.28,11.48-15,29.24-6.73,43.56,5.86,10.17,15.79,17.36,26.31,22.11a213.14,213.14,0,0,0,42.72,13.91c40.9,9,83.27,12.59,125.05,14.1a951.62,951.62,0,0,0,138.79-4.54q17.1-1.87,34.14-4.5c13.37-2.06,22-19.54,18-31.73-4.72-14.57-17.39-20.22-31.73-18-2.11.33-4.21.64-6.32,1l-1.53.22q-7.28.92-14.56,1.72-15.06,1.62-30.17,2.65c-22.58,1.57-45.21,2.3-67.84,2.33-22.23,0-44.47-.62-66.66-2.08q-15.18-1-30.28-2.53-6.89-.72-13.72-1.55L190.77,78l-1-.14-4.51-.65c-9.21-1.39-18.42-3-27.53-4.91a4.22,4.22,0,0,1-2.34-1.45,4.14,4.14,0,0,1,2.34-6.63H158c7.9-1.69,15.85-3.12,23.84-4.38,2.66-.42,5.33-.82,8-1.23h.07c5-.33,10-1.22,15-1.81a952.86,952.86,0,0,1,130.3-4.6c21.12.62,42.22,1.86,63.23,4,4.52.47,9,1,13.52,1.52,1.72.2,3.45.45,5.18.66l3.49.5q15.26,2.28,30.35,5.52C465.85,67.61,485,68.67,491.63,85c2.11,5.19,3.07,11,4.24,16.39l1.48,6.94a2.34,2.34,0,0,1,.09.38q5.26,24.55,10.55,49.13a8.9,8.9,0,0,1,0,3.67,9,9,0,0,1-7.59,7.12h-.09l-2.15.3-2.13.28q-10.1,1.32-20.22,2.46-19.92,2.27-39.93,3.93-39.72,3.3-79.62,4.33-20.34.54-40.65.51a1409.48,1409.48,0,0,1-161.32-9.39c-5.8-.68-11.59-1.42-17.39-2.17,4.5.58-3.27-.44-4.84-.66q-5.52-.78-11.05-1.61c-12.37-1.86-24.67-4.14-37-6.14-14.92-2.46-29.2-1.23-42.7,6.14a62.07,62.07,0,0,0-25.7,26.65c-5.82,12-7.56,25.14-10.16,38.08S-1.2,258.19.34,271.46c3.3,28.66,23.33,52,52.15,57.16,27.11,4.91,54.36,8.89,81.69,12.28a1509.43,1509.43,0,0,0,323.5,4.69q13.15-1.23,26.27-2.68a18.43,18.43,0,0,1,20.34,20.2l-2.72,26.5Q493.32,470,485.08,550.28q-8.59,84.36-17.3,168.7l-4.92,47.5c-1.57,15.59-1.79,31.66-4.75,47.07-4.67,24.22-21.06,39.09-45,44.53a314.11,314.11,0,0,1-66.79,7.82c-24.93.13-49.83-1-74.75-.84-26.61.15-59.2-2.31-79.73-22.11-18-17.39-20.54-44.62-23-68.17q-4.9-46.75-9.73-93.51L141.06,508,129.38,395.85c-.2-1.85-.39-3.68-.58-5.55-1.4-13.38-10.87-26.47-25.79-25.79-12.78.56-27.29,11.42-25.8,25.79l8.66,83.13,17.91,172q7.65,73.26,15.27,146.55c1,9.36,1.9,18.74,2.94,28.1,5.61,51.15,44.67,78.71,93,86.47,28.25,4.55,57.18,5.48,85.85,6,36.75.59,73.87,2,110-4.66,53.56-9.82,93.75-45.59,99.49-101.07q2.45-24,4.91-48.06,8.16-79.5,16.31-159l17.76-173.19,8.14-79.37a18.43,18.43,0,0,1,14.84-16.2c15.32-3,30-8.08,40.85-19.74C630.55,292.61,634,268.42,627.87,244ZM51.7,261.15c.24-.11-.19,1.89-.38,2.82C51.29,262.56,51.36,261.31,51.7,261.15Zm1.49,11.49c.12-.08.49.41.87,1-.58-.54-.94-.95-.88-1Zm1.46,1.93c.53.9.81,1.46,0,0ZM57.59,277h.07c0,.09.14.18.18.26a2.23,2.23,0,0,0-.27-.26Zm514.05-3.56c-5.5,5.23-13.79,7.67-22,8.88-91.87,13.64-185.08,20.54-278,17.49-66.47-2.27-132.24-9.65-198-18.95-6.45-.91-13.44-2.09-17.87-6.84-8.36-9-4.25-27-2.08-37.85,2-9.93,5.8-23.16,17.6-24.57,18.43-2.16,39.82,5.61,58.05,8.38q32.91,5,66.08,8c94.36,8.6,190.29,7.26,284.23-5.32q25.68-3.45,51.18-8c15.15-2.71,31.94-7.81,41.09,7.88,6.28,10.68,7.11,25,6.14,37.05a20.68,20.68,0,0,1-6.42,13.83Z"/>
  <text class="c" transform="translate(792.56 589.17)">Buy me a coffee</text>
</svg>
