<?xml version="1.0" encoding="utf-8"?>
<!-- Generator: Adobe Illustrator 25.0.1, SVG Export Plug-In . SVG Version: 6.00 Build 0)  -->
<svg version="1.1" id="Lag_1" xmlns="http://www.w3.org/2000/svg" xmlns:xlink="http://www.w3.org/1999/xlink" x="0px" y="0px"
	 viewBox="0 0 4169 913" style="enable-background:new 0 0 4169 913;" xml:space="preserve">
<style type="text/css">
	.st0{fill:#0D0C22;}
	.st1{fill:#E5C27C;}
	.st2{enable-background:new    ;}
</style>
<path class="st0" d="M623.7,253.7l-0.5-0.3l-1.2-0.4C622.5,253.5,623.1,253.7,623.7,253.7z"/>
<path class="st0" d="M631.1,306.2l-0.6,0.2L631.1,306.2z"/>
<path class="st0" d="M624,253.6c-0.1,0-0.1,0-0.2,0v0.1C623.8,253.7,623.9,253.7,624,253.6z"/>
<path class="st0" d="M623.8,253.7L623.8,253.7L623.8,253.7L623.8,253.7z"/>
<path class="st0" d="M630.6,306.1l0.9-0.5l0.3-0.2l0.3-0.3C631.6,305.4,631.1,305.7,630.6,306.1L630.6,306.1z"/>
<path class="st0" d="M625.2,254.9l-0.8-0.8l-0.6-0.3C624.1,254.3,624.6,254.7,625.2,254.9L625.2,254.9z"/>
<path class="st0" d="M416.3,764.3c-0.7,0.3-1.2,0.7-1.7,1.3l0.5-0.3C415.5,765,416,764.6,416.3,764.3z"/>
<path class="st0" d="M537.6,740.5c0-0.8-0.4-0.6-0.3,2.1c0-0.2,0.1-0.4,0.1-0.6C537.5,741.4,537.5,740.9,537.6,740.5z"/>
<path class="st0" d="M525,764.3c-0.7,0.3-1.2,0.7-1.7,1.3l0.5-0.3C524.2,765,524.7,764.6,525,764.3z"/>
<path class="st0" d="M330.8,770c-0.5-0.4-1.1-0.7-1.8-0.8c0.5,0.3,1.1,0.5,1.4,0.7L330.8,770z"/>
<path class="st0" d="M311.6,751.6c-0.1-0.8-0.3-1.5-0.7-2.2C311.2,750.1,311.4,750.8,311.6,751.6L311.6,751.6z"/>
<path class="st1" d="M440.8,422.3c-26.4,11.3-56.3,24.1-95.2,24.1c-16.2,0-32.4-2.3-48-6.6l26.9,275.7c2,23.9,21.9,42.3,45.9,42.3
	c0,0,38.1,2,50.8,2c13.7,0,54.7-2,54.7-2c24,0,43.9-18.4,45.9-42.3l28.8-304.7c-12.9-4.4-25.8-7.3-40.4-7.3
	C484.7,403.5,464.3,412.2,440.8,422.3z"/>
<path class="st0" d="M214.4,304.6l0.5,0.4l0.3,0.2C214.9,305,214.7,304.8,214.4,304.6z"/>
<path class="st0" d="M674.6,279.2l-4-20.4c-3.6-18.3-11.9-35.6-30.7-42.2c-6-2.1-12.9-3-17.5-7.4s-6-11.2-7.1-17.5
	c-2-11.6-3.8-23.2-5.9-34.7c-1.8-9.9-3.1-21.1-7.7-30.2c-5.9-12.2-18.2-19.4-30.5-24.1c-6.3-2.3-12.7-4.3-19.2-5.9
	c-30.6-8-62.7-11-94.2-12.7c-37.8-2.1-75.7-1.4-113.3,1.9c-28,2.5-57.6,5.6-84.2,15.3c-9.7,3.5-19.8,7.8-27.2,15.3
	c-9.1,9.2-12.1,23.5-5.4,35.1c4.7,8.2,12.7,14,21.2,17.8c11,4.9,22.6,8.7,34.4,11.2c32.9,7.2,67,10.1,100.7,11.3
	c37.3,1.5,74.6,0.3,111.7-3.7c9.2-1,18.3-2.2,27.5-3.6c10.8-1.7,17.7-15.7,14.5-25.5c-3.8-11.7-14-16.3-25.5-14.5
	c-1.7,0.3-3.4,0.5-5.1,0.8l-1.2,0.2c-3.9,0.5-7.8,1-11.7,1.4c-8.1,0.9-16.2,1.6-24.3,2.1c-18.2,1.3-36.4,1.9-54.6,1.9
	c-17.9,0-35.8-0.5-53.7-1.7c-8.1-0.5-16.3-1.2-24.4-2c-3.7-0.4-7.4-0.8-11-1.2l-3.5-0.4l-0.8-0.1l-3.6-0.5c-7.4-1.1-14.8-2.4-22.2-4
	c-0.7-0.2-1.4-0.6-1.9-1.2c-1.2-1.4-0.9-3.5,0.5-4.7c0.4-0.3,0.9-0.5,1.4-0.7h0.2c6.4-1.4,12.8-2.5,19.2-3.5c2.1-0.3,4.3-0.7,6.4-1
	h0.1c4-0.3,8-1,12.1-1.5c34.8-3.6,69.9-4.9,104.9-3.7c17,0.5,34,1.5,50.9,3.2c3.6,0.4,7.2,0.8,10.9,1.2c1.4,0.2,2.8,0.4,4.2,0.5
	l2.8,0.4c8.2,1.2,16.3,2.7,24.4,4.4c12,2.6,27.4,3.4,32.7,16.6c1.7,4.2,2.5,8.9,3.4,13.2l1.2,5.6c0,0.1,0.1,0.2,0.1,0.3
	c2.8,13.2,5.7,26.4,8.5,39.5c0.2,1,0.2,2,0,3c-0.6,3-3.1,5.3-6.1,5.7h-0.1l-1.7,0.2l-1.7,0.2c-5.4,0.7-10.8,1.4-16.3,2
	c-10.7,1.2-21.4,2.3-32.1,3.2c-21.3,1.8-42.7,2.9-64.1,3.5c-10.9,0.3-21.8,0.4-32.7,0.4c-43.4,0-86.7-2.6-129.9-7.6
	c-4.7-0.5-9.3-1.1-14-1.7c3.6,0.5-2.6-0.4-3.9-0.5c-3-0.4-5.9-0.9-8.9-1.3c-10-1.5-19.9-3.3-29.8-4.9c-12-2-23.5-1-34.4,4.9
	c-8.9,4.9-16.1,12.4-20.7,21.5c-4.7,9.7-6.1,20.2-8.2,30.7s-5.4,21.6-4.1,32.3c2.7,23.1,18.8,41.9,42,46c21.8,4,43.8,7.2,65.8,9.9
	c86.4,10.6,173.7,11.8,260.4,3.8c7.1-0.7,14.1-1.4,21.1-2.2c8.1-0.9,15.5,5,16.4,13.1c0.1,1,0.1,2.1,0,3.1l-2.2,21.3
	c-4.4,43.1-8.9,86.2-13.3,129.3c-4.6,45.3-9.3,90.5-13.9,135.8l-4,38.2c-1.3,12.5-1.4,25.5-3.8,37.9c-3.8,19.5-17,31.5-36.2,35.8
	c-17.6,4-35.7,6.1-53.8,6.3c-20.1,0.1-40.1-0.8-60.2-0.7c-21.4,0.1-47.7-1.9-64.2-17.8c-14.5-14-16.5-35.9-18.5-54.9
	c-2.6-25.1-5.2-50.2-7.8-75.3l-14.5-139.5l-9.4-90.3c-0.2-1.5-0.3-3-0.5-4.5c-1.1-10.8-8.7-21.3-20.8-20.8
	c-10.3,0.5-22,9.2-20.8,20.8l7,66.9l14.4,138.4c4.1,39.3,8.2,78.6,12.3,118c0.8,7.5,1.5,15.1,2.4,22.6c4.5,41.2,36,63.4,74.9,69.6
	c22.7,3.7,46,4.4,69.1,4.8c29.6,0.5,59.5,1.6,88.5-3.8c43.1-7.9,75.5-36.7,80.1-81.4c1.3-12.9,2.6-25.8,4-38.7
	c4.4-42.7,8.8-85.3,13.1-128l14.3-139.4l6.6-63.9c0.7-6.5,5.5-11.8,11.9-13c12.3-2.4,24.1-6.5,32.9-15.9
	C676.7,318.3,679.5,298.8,674.6,279.2z M210.8,293c0.2-0.1-0.2,1.5-0.3,2.3C210.5,294.1,210.5,293.1,210.8,293z M212,302.2
	c0.1-0.1,0.4,0.3,0.7,0.8C212.2,302.6,211.9,302.3,212,302.2L212,302.2z M213.2,303.8C213.6,304.5,213.8,304.9,213.2,303.8z
	 M215.5,305.7L215.5,305.7c0.1,0.1,0.2,0.1,0.2,0.2C215.7,305.9,215.6,305.8,215.5,305.7L215.5,305.7z M629.3,302.9
	c-4.4,4.2-11.1,6.2-17.7,7.1c-73.9,11-149,16.5-223.8,14.1c-53.5-1.8-106.4-7.8-159.4-15.3c-5.2-0.7-10.8-1.7-14.4-5.5
	c-6.7-7.2-3.4-21.7-1.7-30.5c1.6-8,4.7-18.6,14.2-19.8c14.8-1.7,32.1,4.5,46.7,6.7c17.7,2.7,35.4,4.8,53.2,6.4
	c76,6.9,153.2,5.8,228.8-4.3c13.8-1.9,27.5-4,41.2-6.4c12.2-2.2,25.7-6.3,33.1,6.3c5.1,8.6,5.7,20.1,4.9,29.8
	C634.2,296,632.4,299.9,629.3,302.9L629.3,302.9z"/>
<g class="st2">
	<path d="M809.1,589.2l42-341.3h109.5c18.9,0,35,1.9,48.5,5.5c13.5,3.7,24.5,8.9,33,15.7c8.6,6.8,14.9,14.9,19,24.5
		c4.1,9.6,6.1,20.3,6.1,32.1c0,9.8-1.3,19.1-3.9,28c-2.6,8.9-6.6,17.1-12.2,24.7c-5.5,7.6-12.5,14.3-21,20.3
		c-8.5,6-18.6,10.9-30.4,14.9c19.4,4.9,33.7,12.8,43.2,23.7c9.4,10.9,14.2,24.8,14.2,41.7c0,15.7-2.9,30.3-8.7,43.8
		c-5.8,13.5-14.2,25.1-25.3,34.9c-11,9.8-24.4,17.5-40.2,23.1c-15.8,5.6-33.7,8.4-53.7,8.4H809.1z M888.6,438.8l-12.5,102.7h57.8
		c11,0,20.5-1.5,28.3-4.5c7.9-3,14.4-7.2,19.5-12.6c5.1-5.4,8.9-12,11.3-19.6c2.4-7.6,3.7-16,3.7-25.1c0-12.4-3.9-22.3-11.8-29.7
		c-7.9-7.4-20.8-11.1-38.7-11.1H888.6z M893.8,396.6h45.3c21.1,0,37.3-5,48.7-14.9c11.4-9.9,17.1-25.1,17.1-45.5
		c0-14.3-4.1-24.7-12.2-31.3c-8.1-6.5-20.7-9.8-37.9-9.8h-48.6L893.8,396.6z"/>
	<path d="M1172.3,347c-3.1,26.6-5.8,49.1-8,67.5c-2.2,18.4-4,33.7-5.4,46c-1.4,12.3-2.5,21.9-3.3,29c-0.8,7.1-1.4,12.4-1.8,16
		c-0.4,3.6-0.6,6.1-0.7,7.3c-0.1,1.3-0.1,2.3-0.1,3.1c0,10.4,1.9,17.8,5.8,22.3c3.9,4.5,9.7,6.7,17.6,6.7c6.1,0,12.5-1.7,19-5.1
		c6.5-3.4,12.8-8.2,18.9-14.5c6.1-6.3,11.7-13.9,16.9-22.9c5.2-9,9.6-19,13.2-30l15.1-125.6h58.3l-29.3,242.1h-29.5
		c-2.7,0-5.2-0.4-7.7-1.1c-2.4-0.7-4.6-1.8-6.6-3.2c-2-1.4-3.5-3.2-4.7-5.4c-1.2-2.2-1.8-4.8-1.8-7.8v-0.9l1.4-29.5
		c-12.3,17.3-25.7,30.2-40.2,38.7c-14.6,8.5-29.6,12.7-45.2,12.7c-9,0-17.1-1.6-24.4-4.8c-7.3-3.2-13.6-7.9-18.8-14
		s-9.2-13.7-12-22.8c-2.8-9-4.2-19.4-4.2-31c0-3.1,0.1-6.3,0.2-9.4c0.2-3.1,0.5-6.4,0.9-9.9L1114,347H1172.3z"/>
	<path d="M1417,656.2c-4.1,8-10.4,12-18.9,12h-43.2l53.8-97.5L1347.6,347h48.9c4.2,0,7.4,1.1,9.6,3.2s3.6,4.7,4.4,7.7l29.7,125.6
		c0.9,4.1,1.7,8.1,2.2,12c0.5,3.9,1,7.9,1.3,12c1.7-4.1,3.5-8.1,5.3-12.2c1.8-4,3.7-8.1,5.5-12.2l59.7-125.6
		c1.6-3.1,3.9-5.7,6.8-7.7c3-2,6.1-3,9.2-3h46.7L1417,656.2z"/>
	<path d="M1667.4,589.2l29.5-242.4h29.5c6,0,10.7,1.4,14.2,4.2c3.5,2.8,5.2,7.3,5.2,13.5c0,0.2,0,0.4,0,0.7c0,0.3,0,1.4-0.1,3.2
		c-0.1,1.8-0.2,4.6-0.4,8.3c-0.2,3.7-0.4,8.9-0.7,15.7c10.9-16.5,22.7-28.8,35.4-36.9c12.7-8.1,26-12.2,39.9-12.2
		c14.9,0,26.7,5,35.3,14.9c8.6,9.9,13.6,24.2,15,43c11.3-19.8,23.9-34.4,37.6-43.8c13.8-9.4,28.8-14,45-14
		c18.1,0,32.1,6.1,41.9,18.3c9.8,12.2,14.8,29.8,14.8,52.7c0,3.1-0.1,6.5-0.2,10c-0.2,3.5-0.5,7.1-0.9,10.7L1990,589.2h-57.6
		c3.1-26.7,5.8-49.4,8-68.1c2.2-18.6,4-34.2,5.4-46.7c1.4-12.5,2.5-22.3,3.3-29.4c0.8-7.1,1.4-12.5,1.8-16.4
		c0.4-3.9,0.6-6.5,0.7-7.8c0.1-1.3,0.1-2.4,0.1-3.2c0-9.4-1.6-16.2-4.7-20.4c-3.1-4.2-8.3-6.3-15.3-6.3c-6,0-11.8,1.6-17.5,4.7
		c-5.7,3.1-11.1,7.7-16.2,13.7c-5.1,6-9.8,13.3-14.2,21.9c-4.3,8.7-8.1,18.4-11.4,29.3l-15.1,128.6H1800l18.2-154.1
		c0.3-3.3,0.6-6.4,0.8-9.3c0.2-2.9,0.4-5.6,0.4-8.1c0-9.4-1.5-16.2-4.6-20.4c-3.1-4.2-8.1-6.3-15.2-6.3c-6.1,0-12.1,1.7-17.9,5
		c-5.8,3.3-11.3,8.1-16.4,14.3c-5.1,6.2-9.8,13.8-14.2,22.7c-4.3,8.9-8.1,18.8-11.4,29.9l-15.1,126.5H1667.4z"/>
	<path d="M2244.9,403.2c0,10.9-2.2,20.8-6.5,29.7c-4.3,9-12.1,17-23.2,24.1c-11.2,7.1-26.3,13.2-45.4,18.3
		c-19.1,5.1-43.5,9.2-73,12.2v3.1c0,38.1,16.1,57.1,48.4,57.1c6.9,0,13.1-0.7,18.4-2c5.3-1.3,10-3,14-4.8c4-1.9,7.6-4,10.9-6.4
		c3.2-2.4,6.2-4.5,9-6.4c2.8-1.9,5.5-3.5,8.1-4.8c2.7-1.3,5.6-2,8.7-2c1.9,0,3.8,0.4,5.7,1.3c1.9,0.9,3.5,2.2,4.7,3.9l14.9,17.9
		c-8.3,8.3-16.5,15.6-24.5,21.7c-8,6.1-16.2,11.2-24.5,15.1c-8.3,3.9-17.2,6.8-26.4,8.7c-9.3,1.9-19.4,2.8-30.4,2.8
		c-14.2,0-27-2.4-38.5-7.2c-11.5-4.8-21.3-11.6-29.5-20.3c-8.2-8.7-14.5-19.3-19-31.6c-4.5-12.3-6.7-26.2-6.7-41.4
		c0-12.7,1.4-25.3,4.1-37.5c2.8-12.3,6.7-23.9,11.9-34.9c5.2-11,11.6-21.2,19.1-30.4c7.6-9.3,16.1-17.3,25.6-24.1
		c9.5-6.8,20-12,31.4-15.8c11.4-3.8,23.6-5.7,36.7-5.7c12.7,0,23.9,1.8,33.4,5.4c9.5,3.6,17.5,8.3,23.8,14
		c6.4,5.7,11.1,12.2,14.3,19.2C2243.3,389.5,2244.9,396.4,2244.9,403.2z M2165.4,384.3c-7.9,0-15.2,1.6-21.9,4.8
		c-6.8,3.2-12.9,7.8-18.3,13.6c-5.4,5.8-10.1,12.8-14.2,20.9c-4,8.1-7.2,17-9.6,26.5c19.5-2.7,35.2-5.6,47.1-8.7
		c11.9-3.1,21.1-6.6,27.6-10.4c6.5-3.8,10.9-7.8,13-12s3.2-8.8,3.2-13.7c0-2.4-0.5-4.8-1.5-7.3c-1-2.5-2.6-4.8-4.7-6.7
		c-2.1-2-4.9-3.6-8.3-5C2174.4,385,2170.2,384.3,2165.4,384.3z"/>
	<path d="M2545.1,589.2h-30.7c-7.1,0-12-1.7-14.9-5s-4.2-7.5-4.2-12.5l1.9-33c-10.7,16.7-22.7,29.9-36.1,39.5
		c-13.4,9.7-28.1,14.5-44.1,14.5c-9.1,0-17.7-1.8-25.6-5.4c-7.9-3.6-14.9-9-20.8-16.2c-5.9-7.2-10.5-16.1-13.9-26.9
		c-3.4-10.8-5.1-23.4-5.1-37.9c0-14.5,1.8-28.6,5.4-42.2c3.6-13.7,8.8-26.5,15.5-38.6c6.7-12,14.8-23.1,24.2-33.2
		c9.4-10.1,20-18.7,31.7-26c11.7-7.2,24.4-12.9,38-16.9c13.6-4,28-6,43.1-6c10.9,0,21.7,0.8,32.7,2.4c10.9,1.6,21.7,4.4,32.2,8.5
		L2545.1,589.2z M2439.8,545c6.4,0,12.8-2.2,19-6.6c6.2-4.4,12.1-10.5,17.6-18.3c5.5-7.8,10.6-17,15.3-27.5
		c4.7-10.5,8.8-21.9,12.3-34l9.2-73.2c-4.2-0.5-8.2-0.7-11.8-0.7c-13.1,0-25.2,3-36.3,9c-11.2,6-20.8,14-29,24.2
		c-8.2,10.1-14.6,21.9-19.2,35.4c-4.6,13.5-7,27.7-7,42.6c0,17,2.7,29.4,8,37.3C2423.2,541.1,2430.5,545,2439.8,545z"/>
	<path d="M2852.7,568.4c-7.3,6-14.8,10.8-22.3,14.4c-7.6,3.6-15.5,6.2-23.8,7.7c-8.3,1.5-17.5,2.2-27.4,2.2c-14,0-26.5-2.4-37.6-7.2
		c-11.1-4.8-20.5-11.6-28.2-20.4c-7.7-8.8-13.6-19.4-17.6-31.9c-4-12.4-6-26.3-6-41.5c0-19.7,3.1-38.4,9.4-56.3
		c6.3-17.9,15.1-33.6,26.4-47.2c11.3-13.6,24.8-24.5,40.4-32.6c15.6-8.1,32.6-12.2,51-12.2c16,0,29.7,2.8,40.9,8.5
		c11.2,5.7,21.3,14.2,30.1,25.5l-18.6,22.2c-1.4,1.4-3,2.7-4.8,3.9c-1.8,1.2-3.8,1.8-6,1.8c-2.7,0-5.1-0.8-7.3-2.5
		c-2.2-1.7-4.8-3.4-7.7-5.3c-2.9-1.9-6.5-3.7-10.9-5.3c-4.3-1.7-10-2.5-16.9-2.5c-9,0-17.5,2.4-25.7,7.3
		c-8.2,4.9-15.4,11.8-21.6,20.8c-6.2,9-11.2,19.7-14.9,32.3c-3.7,12.6-5.5,26.5-5.5,41.8c0,17.8,3.9,31.5,11.8,41.2
		c7.9,9.7,18.5,14.5,31.9,14.5c9,0,16.4-1.3,22.3-3.9c5.9-2.6,10.9-5.4,15-8.5c4.1-3.1,7.7-5.9,11-8.5c3.2-2.6,6.7-3.9,10.5-3.9
		c1.9,0,3.7,0.5,5.5,1.5c1.8,1,3.4,2.3,4.8,3.9l14.9,17.9C2867.7,555,2860,562.4,2852.7,568.4z"/>
	<path d="M2986.8,592.7c-13.4,0-25.8-2.2-37.2-6.7c-11.4-4.5-21.2-11.1-29.5-19.7c-8.3-8.7-14.8-19.3-19.5-31.9
		c-4.7-12.6-7.1-27-7.1-43.2c0-20.9,3.3-40.4,10-58.5c6.7-18.1,15.8-33.7,27.4-47c11.6-13.2,25.1-23.6,40.5-31.2
		c15.4-7.6,31.9-11.3,49.3-11.3c13.4,0,25.8,2.2,37.2,6.7c11.4,4.5,21.3,11.1,29.6,19.7c8.3,8.7,14.9,19.3,19.6,31.9
		c4.7,12.6,7.1,27,7.1,43.2c0,20.8-3.4,40.2-10.1,58.2c-6.8,18-15.9,33.7-27.5,47c-11.6,13.3-25.1,23.8-40.5,31.4
		C3020.8,588.9,3004.3,592.7,2986.8,592.7z M2992,547.9c9.8,0,18.6-2.8,26.4-8.4c7.9-5.6,14.6-13.1,20.2-22.4
		c5.6-9.4,9.9-20.3,12.9-32.7c3-12.4,4.5-25.5,4.5-39.2c0-19.7-3.3-34.1-10-43.4c-6.7-9.3-16.8-13.9-30.3-13.9
		c-9.8,0-18.6,2.8-26.4,8.3c-7.9,5.5-14.6,13-20.1,22.4c-5.5,9.4-9.8,20.4-12.7,32.8c-3,12.4-4.5,25.6-4.5,39.4
		c0,19.7,3.3,34.1,9.9,43.3C2968.4,543.3,2978.5,547.9,2992,547.9z"/>
	<path d="M3226.1,390.7l-22.9,188.6l-12,44.4c-2.2,7.7-5.6,13.6-10.3,17.7c-4.6,4.1-11.2,6.1-19.7,6.1h-23.4l30.9-256.8l-18.6-3.3
		c-3.5-0.6-6.3-1.9-8.5-3.9c-2.2-2-3.3-4.8-3.3-8.4c0-0.2,0-0.5,0.1-0.9c0.1-0.5,0.2-1.5,0.4-3.2c0.2-1.7,0.4-4.2,0.8-7.6
		c0.4-3.4,1-8.1,1.8-14.3h32.6l2.1-17.9c1.7-13.8,5.4-26.3,11-37.3c5.6-11,12.7-20.4,21.2-28.1c8.6-7.7,18.4-13.6,29.6-17.7
		c11.2-4.1,23.2-6.1,36.1-6.1c10.1,0,19.4,1.5,27.8,4.5l-5.2,30.2c-0.3,1.7-1.1,3.1-2.2,4.1c-1.2,1-2.6,1.8-4.4,2.2
		c-1.7,0.5-3.7,0.8-5.8,0.9c-2.1,0.2-4.3,0.2-6.5,0.2c-6.3,0-12.1,0.9-17.3,2.6c-5.3,1.7-9.9,4.5-13.9,8.4c-4,3.9-7.3,8.9-9.9,15.1
		c-2.6,6.2-4.4,13.8-5.5,22.8l-1.9,16h54.3l-5.4,41.5H3226.1z"/>
	<path d="M3376.2,390.7l-22.9,188.6l-12,44.4c-2.2,7.7-5.6,13.6-10.3,17.7c-4.6,4.1-11.2,6.1-19.7,6.1H3288l30.9-256.8l-18.6-3.3
		c-3.5-0.6-6.3-1.9-8.5-3.9c-2.2-2-3.3-4.8-3.3-8.4c0-0.2,0-0.5,0.1-0.9c0.1-0.5,0.2-1.5,0.4-3.2c0.2-1.7,0.4-4.2,0.8-7.6
		c0.4-3.4,1-8.1,1.8-14.3h32.6l2.1-17.9c1.7-13.8,5.4-26.3,11-37.3c5.6-11,12.7-20.4,21.2-28.1c8.6-7.7,18.4-13.6,29.6-17.7
		c11.2-4.1,23.2-6.1,36.1-6.1c10.1,0,19.4,1.5,27.8,4.5l-5.2,30.2c-0.3,1.7-1.1,3.1-2.2,4.1c-1.2,1-2.6,1.8-4.4,2.2
		c-1.7,0.5-3.7,0.8-5.8,0.9c-2.1,0.2-4.3,0.2-6.5,0.2c-6.3,0-12.1,0.9-17.3,2.6c-5.3,1.7-9.9,4.5-13.9,8.4c-4,3.9-7.3,8.9-9.9,15.1
		c-2.6,6.2-4.4,13.8-5.5,22.8l-1.9,16h54.3l-5.4,41.5H3376.2z"/>
	<path d="M3641,403.2c0,10.9-2.2,20.8-6.5,29.7c-4.3,9-12.1,17-23.2,24.1c-11.2,7.1-26.3,13.2-45.4,18.3c-19.1,5.1-43.5,9.2-73,12.2
		v3.1c0,38.1,16.1,57.1,48.4,57.1c6.9,0,13.1-0.7,18.4-2c5.3-1.3,10-3,14-4.8c4-1.9,7.6-4,10.9-6.4c3.2-2.4,6.2-4.5,9-6.4
		c2.8-1.9,5.5-3.5,8.1-4.8c2.7-1.3,5.6-2,8.7-2c1.9,0,3.8,0.4,5.7,1.3c1.9,0.9,3.5,2.2,4.7,3.9l14.9,17.9
		c-8.3,8.3-16.5,15.6-24.5,21.7c-8,6.1-16.2,11.2-24.5,15.1c-8.3,3.9-17.2,6.8-26.4,8.7c-9.3,1.9-19.4,2.8-30.4,2.8
		c-14.2,0-27-2.4-38.5-7.2c-11.5-4.8-21.3-11.6-29.5-20.3c-8.2-8.7-14.5-19.3-19-31.6c-4.5-12.3-6.7-26.2-6.7-41.4
		c0-12.7,1.4-25.3,4.1-37.5c2.8-12.3,6.7-23.9,11.9-34.9c5.2-11,11.6-21.2,19.1-30.4c7.6-9.3,16.1-17.3,25.6-24.1
		c9.5-6.8,20-12,31.4-15.8c11.4-3.8,23.6-5.7,36.7-5.7c12.7,0,23.9,1.8,33.4,5.4c9.5,3.6,17.5,8.3,23.8,14
		c6.4,5.7,11.1,12.2,14.3,19.2C3639.5,389.5,3641,396.4,3641,403.2z M3561.5,384.3c-7.9,0-15.2,1.6-21.9,4.8
		c-6.8,3.2-12.9,7.8-18.3,13.6c-5.4,5.8-10.1,12.8-14.2,20.9c-4,8.1-7.2,17-9.6,26.5c19.5-2.7,35.2-5.6,47.1-8.7
		c11.9-3.1,21.1-6.6,27.6-10.4c6.5-3.8,10.9-7.8,13-12s3.2-8.8,3.2-13.7c0-2.4-0.5-4.8-1.5-7.3c-1-2.5-2.6-4.8-4.7-6.7
		c-2.1-2-4.9-3.6-8.3-5C3570.5,385,3566.4,384.3,3561.5,384.3z"/>
	<path d="M3864.3,403.2c0,10.9-2.2,20.8-6.5,29.7c-4.3,9-12.1,17-23.2,24.1c-11.2,7.1-26.3,13.2-45.4,18.3
		c-19.1,5.1-43.5,9.2-73,12.2v3.1c0,38.1,16.1,57.1,48.4,57.1c6.9,0,13.1-0.7,18.4-2c5.3-1.3,10-3,14-4.8c4-1.9,7.6-4,10.9-6.4
		c3.2-2.4,6.2-4.5,9-6.4c2.8-1.9,5.5-3.5,8.1-4.8c2.7-1.3,5.6-2,8.7-2c1.9,0,3.8,0.4,5.7,1.3c1.9,0.9,3.5,2.2,4.7,3.9l14.9,17.9
		c-8.3,8.3-16.5,15.6-24.5,21.7c-8,6.1-16.2,11.2-24.5,15.1c-8.3,3.9-17.2,6.8-26.4,8.7c-9.3,1.9-19.4,2.8-30.4,2.8
		c-14.2,0-27-2.4-38.5-7.2c-11.5-4.8-21.3-11.6-29.5-20.3c-8.2-8.7-14.5-19.3-19-31.6c-4.5-12.3-6.7-26.2-6.7-41.4
		c0-12.7,1.4-25.3,4.1-37.5c2.8-12.3,6.7-23.9,11.9-34.9c5.2-11,11.6-21.2,19.1-30.4c7.6-9.3,16.1-17.3,25.6-24.1
		c9.5-6.8,20-12,31.4-15.8c11.4-3.8,23.6-5.7,36.7-5.7c12.7,0,23.9,1.8,33.4,5.4c9.5,3.6,17.5,8.3,23.8,14
		c6.4,5.7,11.1,12.2,14.3,19.2C3862.7,389.5,3864.3,396.4,3864.3,403.2z M3784.8,384.3c-7.9,0-15.2,1.6-21.9,4.8
		c-6.8,3.2-12.9,7.8-18.3,13.6c-5.4,5.8-10.1,12.8-14.2,20.9c-4,8.1-7.2,17-9.6,26.5c19.5-2.7,35.2-5.6,47.1-8.7
		c11.9-3.1,21.1-6.6,27.6-10.4c6.5-3.8,10.9-7.8,13-12s3.2-8.8,3.2-13.7c0-2.4-0.5-4.8-1.5-7.3c-1-2.5-2.6-4.8-4.7-6.7
		c-2.1-2-4.9-3.6-8.3-5C3793.8,385,3789.6,384.3,3784.8,384.3z"/>
</g>
</svg>
