<?xml version="1.0" encoding="utf-8"?>
<!-- Generator: Adobe Illustrator 25.0.1, SVG Export Plug-In . SVG Version: 6.00 Build 0)  -->
<svg version="1.1" id="Lag_1" xmlns="http://www.w3.org/2000/svg" xmlns:xlink="http://www.w3.org/1999/xlink" x="0px" y="0px"
	 viewBox="0 0 4381.8 1105.9" style="enable-background:new 0 0 4381.8 1105.9;" xml:space="preserve">
<style type="text/css">
	.st0{fill:#F6F6F6;}
	.st1{fill:#0D0C22;}
	.st2{fill:#E5C27C;}
	.st3{enable-background:new    ;}
</style>
<path class="st0" d="M4201.1,1089.3H174.7c-115.1,0-160.3-45.2-160.3-160.3V180.2c0-115.1,45.2-160.3,160.3-160.3h4026.3
	c115.1,0,160.3,45.2,160.3,160.3V929C4361.4,1044.1,4316.2,1089.3,4201.1,1089.3z"/>
<path class="st1" d="M687.7,368.1l-0.5-0.3l-1.2-0.4C686.5,367.9,687.1,368.1,687.7,368.1z"/>
<path class="st1" d="M695.1,420.6l-0.6,0.2L695.1,420.6z"/>
<path class="st1" d="M688,368c-0.1,0-0.1,0-0.2,0v0.1C687.8,368.1,687.9,368.1,688,368z"/>
<path class="st1" d="M687.7,368.1L687.7,368.1L687.7,368.1L687.7,368.1z"/>
<path class="st1" d="M694.6,420.5l0.9-0.5l0.3-0.2l0.3-0.3C695.6,419.8,695.1,420.1,694.6,420.5L694.6,420.5z"/>
<path class="st1" d="M689.2,369.3l-0.8-0.8l-0.6-0.3C688.1,368.7,688.6,369.1,689.2,369.3L689.2,369.3z"/>
<path class="st1" d="M480.3,878.7c-0.7,0.3-1.2,0.7-1.7,1.3l0.5-0.3C479.5,879.4,480,879,480.3,878.7z"/>
<path class="st1" d="M601.6,854.9c0-0.8-0.4-0.6-0.3,2.1c0-0.2,0.1-0.4,0.1-0.6C601.5,855.8,601.5,855.3,601.6,854.9z"/>
<path class="st1" d="M589,878.7c-0.7,0.3-1.2,0.7-1.7,1.3l0.5-0.3C588.2,879.4,588.7,879,589,878.7z"/>
<path class="st1" d="M394.8,884.4c-0.5-0.4-1.1-0.7-1.8-0.8c0.5,0.3,1.1,0.5,1.4,0.7L394.8,884.4z"/>
<path class="st1" d="M375.6,866c-0.1-0.8-0.3-1.5-0.7-2.2C375.2,864.5,375.4,865.2,375.6,866L375.6,866z"/>
<path class="st1" d="M278.4,419l0.5,0.4l0.3,0.2C278.9,419.4,278.7,419.2,278.4,419z"/>
<g>
	<path class="st2" d="M531.4,532.6c-26.9,11.5-57.5,24.6-97.2,24.6c-16.6,0-33.1-2.3-49-6.8l27.4,281.4c2,24.4,22.4,43.1,46.8,43.2
		c0,0,38.9,2,51.8,2c14,0,55.8-2,55.8-2c24.5,0,44.8-18.8,46.8-43.2l29.4-311c-13.1-4.5-26.4-7.5-41.3-7.5
		C576.3,513.4,555.4,522.3,531.4,532.6z"/>
	<g>
		<path class="st1" d="M773,379.3l-4.1-20.9c-3.7-18.8-12.2-36.5-31.4-43.3c-6.2-2.2-13.2-3.1-17.9-7.6c-4.7-4.5-6.1-11.5-7.2-17.9
			c-2-11.9-3.9-23.7-6-35.6c-1.8-10.2-3.2-21.6-7.9-31c-6.1-12.5-18.7-19.9-31.2-24.7c-6.4-2.4-13-4.4-19.6-6.1
			c-31.3-8.2-64.3-11.3-96.5-13c-38.7-2.1-77.5-1.5-116.2,2c-28.7,2.6-59,5.8-86.3,15.7c-10,3.6-20.3,8-27.9,15.7
			c-9.3,9.5-12.4,24.1-5.6,35.9c4.8,8.4,13,14.3,21.7,18.2c11.3,5.1,23.1,8.9,35.2,11.5c33.7,7.4,68.7,10.4,103.2,11.6
			c38.2,1.5,76.5,0.3,114.5-3.7c9.4-1,18.8-2.3,28.2-3.7c11-1.7,18.1-16.1,14.8-26.2c-3.9-12-14.3-16.7-26.2-14.8
			c-1.7,0.3-3.5,0.5-5.2,0.8l-1.3,0.2c-4,0.5-8,1-12,1.4c-8.3,0.9-16.6,1.6-24.9,2.2c-18.6,1.3-37.3,1.9-56,1.9
			c-18.3,0-36.7-0.5-55-1.7c-8.3-0.5-16.7-1.2-25-2.1c-3.8-0.4-7.6-0.8-11.3-1.3l-3.6-0.5l-0.8-0.1l-3.7-0.5
			c-7.6-1.1-15.2-2.5-22.7-4.1c-0.8-0.2-1.4-0.6-1.9-1.2c-1.2-1.5-0.9-3.6,0.5-4.8c0.4-0.3,0.9-0.6,1.4-0.7h0.2
			c6.5-1.4,13.1-2.6,19.7-3.6c2.2-0.3,4.4-0.7,6.6-1h0.1c4.1-0.3,8.2-1,12.4-1.5c35.7-3.7,71.6-5,107.5-3.8
			c17.4,0.5,34.8,1.5,52.2,3.3c3.7,0.4,7.4,0.8,11.2,1.3c1.4,0.2,2.8,0.4,4.3,0.5l2.9,0.4c8.4,1.3,16.7,2.8,25,4.6
			c12.3,2.6,28.1,3.5,33.5,17c1.7,4.3,2.5,9.1,3.5,13.5l1.2,5.7c0,0.1,0.1,0.2,0.1,0.3c2.9,13.5,5.8,27,8.7,40.5c0.2,1,0.2,2,0,3
			c-0.6,3.1-3.1,5.4-6.3,5.9h-0.1l-1.8,0.2l-1.8,0.2c-5.6,0.7-11.1,1.4-16.7,2c-11,1.2-21.9,2.3-32.9,3.2c-21.8,1.8-43.7,3-65.7,3.6
			c-11.2,0.3-22.4,0.4-33.5,0.4c-44.5,0-88.9-2.6-133.1-7.7c-4.8-0.6-9.6-1.2-14.3-1.8c3.7,0.5-2.7-0.4-4-0.5
			c-3-0.4-6.1-0.9-9.1-1.3c-10.2-1.5-20.4-3.4-30.5-5.1c-12.3-2-24.1-1-35.2,5.1c-9.1,5-16.5,12.7-21.2,22
			c-4.8,9.9-6.2,20.7-8.4,31.4c-2.1,10.7-5.5,22.1-4.2,33.1c2.7,23.6,19.2,42.9,43,47.2c22.4,4.1,44.8,7.3,67.4,10.1
			c88.6,10.8,178,12.1,266.9,3.9c7.2-0.7,14.5-1.4,21.7-2.2c8.3-0.9,15.9,5.1,16.8,13.5c0.1,1.1,0.1,2.1,0,3.2l-2.2,21.9
			c-4.5,44.2-9.1,88.4-13.6,132.5c-4.7,46.4-9.5,92.8-14.3,139.2l-4.1,39.2c-1.3,12.9-1.5,26.1-3.9,38.8
			c-3.9,20-17.4,32.2-37.1,36.7c-18.1,4.1-36.6,6.3-55.1,6.5c-20.6,0.1-41.1-0.8-61.7-0.7c-22,0.1-48.8-1.9-65.8-18.2
			c-14.8-14.3-16.9-36.8-19-56.2c-2.7-25.7-5.4-51.4-8-77.1L371.4,597l-9.6-92.5c-0.2-1.5-0.3-3-0.5-4.6c-1.2-11-9-21.8-21.3-21.3
			c-10.5,0.5-22.5,9.4-21.3,21.3l7.1,68.6l14.8,141.9c4.2,40.3,8.4,80.6,12.6,120.9c0.8,7.7,1.6,15.5,2.4,23.2
			c4.6,42.2,36.8,64.9,76.7,71.3c23.3,3.8,47.2,4.5,70.8,4.9c30.3,0.5,60.9,1.6,90.7-3.8c44.2-8.1,77.3-37.6,82.1-83.4
			c1.3-13.2,2.7-26.4,4.1-39.6c4.5-43.7,9-87.4,13.5-131.2l14.7-142.9l6.7-65.5c0.7-6.7,5.7-12.1,12.2-13.4
			c12.6-2.5,24.7-6.7,33.7-16.3C775.2,419.4,778,399.4,773,379.3z M297.7,393.4c0.2-0.1-0.2,1.6-0.3,2.3
			C297.4,394.6,297.4,393.5,297.7,393.4z M298.9,402.9c0.1-0.1,0.4,0.3,0.7,0.8C299.2,403.3,298.9,402.9,298.9,402.9L298.9,402.9z
			 M300.1,404.5C300.6,405.2,300.8,405.7,300.1,404.5z M302.6,406.5L302.6,406.5c0.1,0.1,0.2,0.1,0.2,0.2
			C302.7,406.6,302.6,406.6,302.6,406.5L302.6,406.5z M726.6,403.6c-4.5,4.3-11.4,6.3-18.1,7.3c-75.8,11.3-152.7,16.9-229.3,14.4
			c-54.8-1.9-109.1-8-163.3-15.6c-5.3-0.8-11.1-1.7-14.7-5.6c-6.9-7.4-3.5-22.3-1.7-31.2c1.6-8.2,4.8-19.1,14.5-20.3
			c15.2-1.8,32.8,4.6,47.9,6.9c18.1,2.7,36.3,4.9,54.5,6.6c77.8,7.1,157,6,234.5-4.4c14.1-1.9,28.2-4.1,42.2-6.6
			c12.5-2.2,26.3-6.4,33.9,6.5c5.2,8.8,5.9,20.6,5.1,30.6C731.7,396.5,729.8,400.5,726.6,403.6L726.6,403.6z"/>
		<g class="st3">
			<path d="M989.7,697l43-349.7H1145c19.3,0,35.9,1.9,49.7,5.7c13.8,3.8,25.1,9.2,33.9,16.1c8.8,6.9,15.3,15.3,19.5,25.2
				c4.2,9.8,6.3,20.8,6.3,32.9c0,10-1.3,19.6-4,28.7c-2.7,9.1-6.8,17.5-12.5,25.3c-5.6,7.7-12.8,14.7-21.5,20.8
				c-8.7,6.1-19.1,11.2-31.2,15.2c19.8,5,34.6,13.1,44.3,24.3c9.7,11.2,14.5,25.4,14.5,42.7c0,16.1-3,31.1-8.9,44.9
				c-6,13.8-14.6,25.7-25.9,35.8c-11.3,10.1-25,18-41.2,23.7c-16.2,5.7-34.5,8.6-55,8.6H989.7z M1071.2,542.9l-12.8,105.2h59.3
				c11.3,0,21-1.5,29-4.6c8.1-3.1,14.7-7.4,20-12.9c5.2-5.6,9.1-12.3,11.6-20.1c2.5-7.8,3.7-16.4,3.7-25.8c0-12.7-4-22.9-12.1-30.5
				c-8.1-7.6-21.3-11.4-39.7-11.4H1071.2z M1076.6,499.6h46.4c21.6,0,38.3-5.1,49.9-15.2c11.7-10.2,17.5-25.7,17.5-46.7
				c0-14.7-4.2-25.4-12.5-32c-8.3-6.7-21.2-10-38.8-10h-49.8L1076.6,499.6z"/>
			<path d="M1362,448.8c-3.2,27.2-6,50.3-8.2,69.2c-2.3,18.9-4.1,34.6-5.6,47.2c-1.5,12.6-2.6,22.5-3.4,29.7
				c-0.8,7.3-1.4,12.7-1.8,16.4c-0.4,3.7-0.6,6.2-0.7,7.5c-0.1,1.3-0.1,2.3-0.1,3.1c0,10.6,2,18.3,5.9,22.9c3.9,4.6,10,6.9,18,6.9
				c6.3,0,12.8-1.7,19.5-5.2c6.7-3.5,13.1-8.4,19.3-14.9c6.2-6.4,12-14.3,17.3-23.5c5.3-9.2,9.8-19.4,13.5-30.7l15.5-128.7h59.7
				l-30,248.1h-30.2c-2.7,0-5.4-0.4-7.9-1.1c-2.5-0.7-4.8-1.8-6.8-3.3c-2-1.5-3.6-3.3-4.8-5.6c-1.2-2.3-1.8-4.9-1.8-8v-1l1.5-30.2
				c-12.6,17.7-26.3,31-41.2,39.7c-14.9,8.7-30.4,13.1-46.3,13.1c-9.2,0-17.5-1.7-25-5c-7.5-3.3-13.9-8.1-19.2-14.4
				s-9.4-14.1-12.3-23.3c-2.9-9.3-4.4-19.9-4.4-31.8c0-3.2,0.1-6.4,0.2-9.7c0.2-3.2,0.5-6.6,1-10.2l18.6-157.4H1362z"/>
			<path d="M1612.8,765.6c-4.2,8.2-10.6,12.3-19.3,12.3h-44.3l55.1-99.9l-62.6-229.3h50.1c4.4,0,7.6,1.1,9.8,3.3s3.7,4.8,4.5,7.9
				l30.5,128.7c1,4.2,1.7,8.3,2.3,12.3c0.6,4,1,8.1,1.3,12.3c1.8-4.2,3.6-8.3,5.4-12.5c1.9-4.1,3.7-8.3,5.7-12.5l61.2-128.7
				c1.6-3.2,3.9-5.8,7-7.9c3.1-2,6.2-3,9.4-3h47.9L1612.8,765.6z"/>
			<path d="M1869.4,697l30.2-248.4h30.2c6.1,0,11,1.5,14.5,4.4c3.5,2.9,5.3,7.5,5.3,13.8c0,0.2,0,0.4,0,0.7c0,0.3,0,1.4-0.1,3.3
				c-0.1,1.9-0.2,4.7-0.4,8.5c-0.2,3.8-0.4,9.2-0.7,16.1c11.1-16.9,23.2-29.5,36.3-37.8c13.1-8.3,26.7-12.5,40.9-12.5
				c15.3,0,27.4,5.1,36.2,15.2c8.8,10.2,13.9,24.8,15.4,44c11.6-20.3,24.5-35.3,38.6-44.9c14.1-9.6,29.5-14.4,46.1-14.4
				c18.5,0,32.9,6.3,42.9,18.7c10.1,12.5,15.1,30.5,15.1,54.1c0,3.2-0.1,6.7-0.2,10.3c-0.2,3.6-0.5,7.3-1,11L2200,697h-59
				c3.2-27.4,6-50.7,8.2-69.8c2.3-19.1,4.1-35.1,5.6-47.9c1.5-12.8,2.6-22.9,3.4-30.1c0.8-7.3,1.4-12.9,1.8-16.8
				c0.4-3.9,0.6-6.6,0.7-8c0.1-1.4,0.1-2.5,0.1-3.3c0-9.7-1.6-16.6-4.8-20.9c-3.2-4.3-8.5-6.4-15.7-6.4c-6.1,0-12.1,1.6-17.9,4.8
				c-5.8,3.2-11.3,7.9-16.6,14c-5.2,6.1-10.1,13.6-14.5,22.5c-4.4,8.9-8.3,18.9-11.7,30L2064,697h-58.8l18.6-157.9
				c0.3-3.4,0.6-6.6,0.8-9.6c0.2-3,0.4-5.8,0.4-8.3c0-9.7-1.6-16.6-4.7-20.9c-3.1-4.3-8.3-6.4-15.6-6.4c-6.3,0-12.4,1.7-18.4,5.1
				c-6,3.4-11.6,8.3-16.8,14.6c-5.2,6.4-10.1,14.1-14.5,23.2c-4.4,9.1-8.3,19.3-11.7,30.6L1927.9,697H1869.4z"/>
			<path d="M2461.2,506.4c0,11.1-2.2,21.3-6.7,30.5c-4.4,9.2-12.4,17.4-23.8,24.7c-11.4,7.3-27,13.5-46.6,18.7
				c-19.6,5.2-44.5,9.4-74.9,12.5v3.1c0,39,16.5,58.5,49.6,58.5c7.1,0,13.4-0.7,18.9-2.1c5.5-1.4,10.3-3,14.4-5
				c4.1-1.9,7.8-4.1,11.1-6.5c3.3-2.4,6.4-4.6,9.2-6.5c2.8-1.9,5.6-3.6,8.3-5c2.7-1.4,5.7-2.1,8.9-2.1c1.9,0,3.9,0.4,5.8,1.3
				c1.9,0.9,3.5,2.2,4.8,4l15.2,18.4c-8.5,8.5-16.9,16-25.2,22.3c-8.2,6.3-16.6,11.5-25.2,15.5c-8.5,4-17.6,7-27.1,8.9
				c-9.5,1.9-19.9,2.9-31.2,2.9c-14.5,0-27.7-2.5-39.4-7.4c-11.8-4.9-21.8-11.9-30.2-20.8c-8.4-8.9-14.9-19.7-19.5-32.4
				c-4.6-12.7-6.9-26.8-6.9-42.4c0-13.1,1.4-25.9,4.2-38.5c2.8-12.6,6.9-24.5,12.2-35.8c5.3-11.3,11.9-21.7,19.6-31.2
				c7.7-9.5,16.5-17.7,26.2-24.7c9.8-6.9,20.5-12.3,32.2-16.2c11.7-3.9,24.2-5.8,37.6-5.8c13.1,0,24.5,1.9,34.2,5.6
				c9.8,3.7,17.9,8.5,24.4,14.4c6.5,5.9,11.4,12.5,14.6,19.7C2459.6,492.4,2461.2,499.4,2461.2,506.4z M2379.7,487
				c-8.1,0-15.6,1.7-22.5,5c-6.9,3.3-13.2,7.9-18.7,13.9c-5.6,6-10.4,13.1-14.5,21.4c-4.1,8.3-7.4,17.4-9.8,27.2
				c20-2.7,36.1-5.7,48.3-8.9c12.2-3.2,21.6-6.8,28.3-10.6c6.7-3.9,11.1-8,13.3-12.3s3.3-9,3.3-14c0-2.4-0.5-4.9-1.6-7.5
				c-1.1-2.6-2.7-4.9-4.8-6.9c-2.2-2-5-3.7-8.5-5.1C2388.9,487.7,2384.7,487,2379.7,487z"/>
			<path d="M2768.8,697h-31.4c-7.3,0-12.3-1.7-15.2-5.1s-4.4-7.7-4.4-12.8l1.9-33.9c-11,17.1-23.3,30.6-37,40.5
				c-13.7,9.9-28.8,14.9-45.2,14.9c-9.4,0-18.1-1.9-26.2-5.6c-8.1-3.7-15.2-9.2-21.3-16.6c-6-7.3-10.8-16.5-14.3-27.6
				c-3.5-11-5.2-24-5.2-38.8c0-14.8,1.9-29.3,5.6-43.3c3.7-14,9-27.2,15.8-39.5c6.9-12.3,15.1-23.7,24.8-34
				c9.7-10.3,20.5-19.2,32.5-26.6c12-7.4,25-13.2,38.9-17.3c13.9-4.1,28.7-6.2,44.1-6.2c11.1,0,22.3,0.8,33.5,2.4
				c11.2,1.6,22.2,4.5,33,8.7L2768.8,697z M2660.9,651.7c6.6,0,13.1-2.3,19.5-6.8c6.4-4.5,12.4-10.8,18-18.7
				c5.6-8,10.9-17.4,15.7-28.2c4.8-10.8,9-22.4,12.6-34.8l9.4-75c-4.4-0.5-8.4-0.7-12.1-0.7c-13.4,0-25.8,3.1-37.2,9.2
				c-11.5,6.1-21.4,14.4-29.7,24.8c-8.4,10.4-15,22.5-19.7,36.3c-4.8,13.8-7.1,28.3-7.1,43.7c0,17.4,2.7,30.2,8.2,38.2
				C2643.9,647.7,2651.4,651.7,2660.9,651.7z"/>
			<path d="M3084.1,675.7c-7.5,6.1-15.1,11-22.9,14.8c-7.7,3.7-15.9,6.3-24.4,7.9c-8.5,1.5-17.9,2.3-28.1,2.3
				c-14.4,0-27.2-2.5-38.6-7.4c-11.4-4.9-21-11.9-28.9-20.9c-7.9-9-13.9-19.9-18-32.6c-4.1-12.7-6.2-26.9-6.2-42.6
				c0-20.2,3.2-39.4,9.7-57.7c6.4-18.3,15.5-34.4,27.1-48.4c11.6-13.9,25.4-25.1,41.4-33.4c16-8.3,33.4-12.5,52.2-12.5
				c16.4,0,30.4,2.9,42,8.7c11.5,5.8,21.8,14.5,30.8,26.1l-19.1,22.7c-1.5,1.5-3.1,2.8-5,4c-1.9,1.2-3.9,1.8-6.2,1.8
				c-2.7,0-5.2-0.8-7.5-2.5c-2.3-1.7-4.9-3.5-7.9-5.4c-3-1.9-6.7-3.7-11.1-5.4c-4.4-1.7-10.2-2.5-17.3-2.5c-9.2,0-18,2.5-26.4,7.5
				c-8.4,5-15.8,12.1-22.1,21.3c-6.4,9.2-11.4,20.2-15.2,33.1c-3.8,12.9-5.7,27.2-5.7,42.8c0,18.2,4,32.3,12.1,42.2
				c8.1,9.9,18.9,14.9,32.7,14.9c9.2,0,16.8-1.3,22.9-4c6-2.7,11.2-5.6,15.4-8.7c4.2-3.1,7.9-6,11.2-8.7c3.3-2.7,6.9-4,10.8-4
				c1.9,0,3.8,0.5,5.7,1.6c1.9,1.1,3.5,2.4,5,4l15.2,18.4C3099.4,662,3091.6,669.6,3084.1,675.7z"/>
			<path d="M3221.5,700.6c-13.7,0-26.4-2.3-38.1-6.9c-11.7-4.6-21.8-11.3-30.2-20.2c-8.5-8.9-15.1-19.7-20-32.7
				c-4.8-12.9-7.3-27.7-7.3-44.3c0-21.4,3.4-41.4,10.3-60c6.9-18.5,16.2-34.6,28.1-48.1c11.9-13.5,25.7-24.2,41.5-31.9
				c15.8-7.7,32.6-11.6,50.5-11.6c13.7,0,26.4,2.3,38.1,6.9c11.7,4.6,21.8,11.3,30.4,20.2c8.5,8.9,15.2,19.8,20.1,32.7
				c4.8,12.9,7.3,27.7,7.3,44.3c0,21.3-3.5,41.2-10.4,59.6c-6.9,18.5-16.3,34.5-28.2,48.1c-11.9,13.6-25.7,24.3-41.5,32.2
				C3256.3,696.7,3239.4,700.6,3221.5,700.6z M3226.9,654.6c10,0,19-2.9,27.1-8.6c8.1-5.7,15-13.4,20.7-23
				c5.7-9.6,10.1-20.8,13.2-33.5c3.1-12.7,4.6-26.1,4.6-40.1c0-20.2-3.4-35-10.3-44.5c-6.9-9.5-17.2-14.3-31.1-14.3
				c-10,0-19,2.8-27.1,8.5c-8.1,5.6-14.9,13.3-20.6,23c-5.6,9.7-10,20.9-13.1,33.6c-3.1,12.7-4.6,26.2-4.6,40.4
				c0,20.2,3.4,34.9,10.2,44.4C3202.7,649.9,3213,654.6,3226.9,654.6z"/>
			<path d="M3466.8,493.6l-23.5,193.2l-12.3,45.5c-2.3,7.9-5.8,13.9-10.5,18.1c-4.8,4.2-11.5,6.3-20.2,6.3h-23.9l31.7-263.1
				l-19.1-3.4c-3.5-0.6-6.5-2-8.7-4c-2.3-2-3.4-4.9-3.4-8.6c0-0.2,0-0.5,0.1-1c0.1-0.5,0.2-1.6,0.4-3.3c0.2-1.7,0.4-4.3,0.8-7.7
				c0.4-3.5,1-8.3,1.8-14.6h33.4l2.2-18.4c1.8-14.2,5.5-26.9,11.2-38.2c5.7-11.3,13-20.9,21.8-28.8c8.8-7.9,18.9-13.9,30.4-18.1
				c11.4-4.2,23.8-6.3,37-6.3c10.3,0,19.8,1.5,28.5,4.6l-5.3,31c-0.3,1.8-1.1,3.2-2.3,4.2c-1.2,1.1-2.7,1.8-4.5,2.3
				c-1.8,0.5-3.7,0.8-5.9,1c-2.2,0.2-4.4,0.2-6.7,0.2c-6.4,0-12.4,0.9-17.8,2.7c-5.4,1.8-10.2,4.6-14.3,8.6
				c-4.1,4-7.5,9.1-10.2,15.5c-2.7,6.4-4.6,14.1-5.7,23.3l-1.9,16.4h55.6l-5.6,42.6H3466.8z"/>
			<path d="M3620.6,493.6l-23.5,193.2l-12.3,45.5c-2.3,7.9-5.8,13.9-10.5,18.1c-4.8,4.2-11.5,6.3-20.2,6.3h-23.9l31.7-263.1
				l-19.1-3.4c-3.5-0.6-6.5-2-8.7-4c-2.3-2-3.4-4.9-3.4-8.6c0-0.2,0-0.5,0.1-1c0.1-0.5,0.2-1.6,0.4-3.3c0.2-1.7,0.4-4.3,0.8-7.7
				c0.4-3.5,1-8.3,1.8-14.6h33.4l2.2-18.4c1.8-14.2,5.5-26.9,11.2-38.2c5.7-11.3,13-20.9,21.8-28.8c8.8-7.9,18.9-13.9,30.4-18.1
				c11.4-4.2,23.8-6.3,37-6.3c10.3,0,19.8,1.5,28.5,4.6l-5.3,31c-0.3,1.8-1.1,3.2-2.3,4.2c-1.2,1.1-2.7,1.8-4.5,2.3
				c-1.8,0.5-3.7,0.8-5.9,1c-2.2,0.2-4.4,0.2-6.7,0.2c-6.5,0-12.4,0.9-17.8,2.7c-5.4,1.8-10.2,4.6-14.3,8.6
				c-4.1,4-7.5,9.1-10.2,15.5c-2.7,6.4-4.6,14.1-5.7,23.3l-1.9,16.4h55.6l-5.6,42.6H3620.6z"/>
			<path d="M3892,506.4c0,11.1-2.2,21.3-6.7,30.5c-4.4,9.2-12.4,17.4-23.8,24.7c-11.5,7.3-27,13.5-46.6,18.7
				c-19.6,5.2-44.5,9.4-74.9,12.5v3.1c0,39,16.5,58.5,49.6,58.5c7.1,0,13.4-0.7,18.9-2.1c5.5-1.4,10.3-3,14.4-5
				c4.1-1.9,7.8-4.1,11.1-6.5c3.3-2.4,6.4-4.6,9.2-6.5c2.8-1.9,5.6-3.6,8.3-5c2.7-1.4,5.7-2.1,8.9-2.1c1.9,0,3.9,0.4,5.8,1.3
				c1.9,0.9,3.5,2.2,4.8,4l15.2,18.4c-8.5,8.5-16.9,16-25.2,22.3c-8.2,6.3-16.6,11.5-25.2,15.5c-8.5,4-17.6,7-27.1,8.9
				c-9.5,1.9-19.9,2.9-31.2,2.9c-14.5,0-27.7-2.5-39.4-7.4c-11.8-4.9-21.9-11.9-30.2-20.8c-8.4-8.9-14.9-19.7-19.5-32.4
				c-4.6-12.7-6.9-26.8-6.9-42.4c0-13.1,1.4-25.9,4.2-38.5c2.8-12.6,6.9-24.5,12.2-35.8c5.3-11.3,11.9-21.7,19.6-31.2
				c7.7-9.5,16.5-17.7,26.2-24.7c9.8-6.9,20.5-12.3,32.2-16.2c11.7-3.9,24.2-5.8,37.6-5.8c13.1,0,24.5,1.9,34.2,5.6
				c9.8,3.7,17.9,8.5,24.4,14.4c6.5,5.9,11.4,12.5,14.6,19.7C3890.3,492.4,3892,499.4,3892,506.4z M3810.4,487
				c-8.1,0-15.6,1.7-22.5,5c-6.9,3.3-13.2,7.9-18.7,13.9c-5.6,6-10.4,13.1-14.5,21.4c-4.1,8.3-7.4,17.4-9.8,27.2
				c20-2.7,36.1-5.7,48.3-8.9c12.2-3.2,21.6-6.8,28.3-10.6c6.7-3.9,11.1-8,13.3-12.3s3.3-9,3.3-14c0-2.4-0.5-4.9-1.6-7.5
				c-1.1-2.6-2.7-4.9-4.8-6.9c-2.2-2-5-3.7-8.5-5.1C3819.7,487.7,3815.4,487,3810.4,487z"/>
			<path d="M4120.7,506.4c0,11.1-2.2,21.3-6.7,30.5c-4.4,9.2-12.4,17.4-23.8,24.7c-11.5,7.3-27,13.5-46.6,18.7
				c-19.6,5.2-44.5,9.4-74.9,12.5v3.1c0,39,16.5,58.5,49.6,58.5c7.1,0,13.4-0.7,18.9-2.1c5.5-1.4,10.3-3,14.4-5
				c4.1-1.9,7.8-4.1,11.1-6.5c3.3-2.4,6.4-4.6,9.2-6.5c2.8-1.9,5.6-3.6,8.3-5c2.7-1.4,5.7-2.1,8.9-2.1c1.9,0,3.9,0.4,5.8,1.3
				c1.9,0.9,3.5,2.2,4.8,4l15.2,18.4c-8.5,8.5-16.9,16-25.2,22.3c-8.2,6.3-16.6,11.5-25.2,15.5c-8.5,4-17.6,7-27.1,8.9
				c-9.5,1.9-19.9,2.9-31.2,2.9c-14.5,0-27.7-2.5-39.4-7.4c-11.8-4.9-21.9-11.9-30.2-20.8c-8.4-8.9-14.9-19.7-19.5-32.4
				c-4.6-12.7-6.9-26.8-6.9-42.4c0-13.1,1.4-25.9,4.2-38.5c2.8-12.6,6.9-24.5,12.2-35.8c5.3-11.3,11.9-21.7,19.6-31.2
				c7.7-9.5,16.5-17.7,26.2-24.7c9.8-6.9,20.5-12.3,32.2-16.2c11.7-3.9,24.2-5.8,37.6-5.8c13.1,0,24.5,1.9,34.2,5.6
				c9.8,3.7,17.9,8.5,24.4,14.4c6.5,5.9,11.4,12.5,14.6,19.7C4119.1,492.4,4120.7,499.4,4120.7,506.4z M4039.2,487
				c-8.1,0-15.6,1.7-22.5,5c-6.9,3.3-13.2,7.9-18.7,13.9c-5.6,6-10.4,13.1-14.5,21.4c-4.1,8.3-7.4,17.4-9.8,27.2
				c20-2.7,36.1-5.7,48.3-8.9c12.2-3.2,21.6-6.8,28.3-10.6c6.7-3.9,11.1-8,13.3-12.3s3.3-9,3.3-14c0-2.4-0.5-4.9-1.6-7.5
				c-1.1-2.6-2.7-4.9-4.8-6.9c-2.2-2-5-3.7-8.5-5.1C4048.5,487.7,4044.2,487,4039.2,487z"/>
		</g>
	</g>
</g>
</svg>
