<?xml version="1.0" standalone="no"?>
<!DOCTYPE svg PUBLIC "-//W3C//DTD SVG 20010904//EN"
 "http://www.w3.org/TR/2001/REC-SVG-20010904/DTD/svg10.dtd">
<svg version="1.0" xmlns="http://www.w3.org/2000/svg"
 width="64.000000pt" height="64.000000pt" viewBox="0 0 64.000000 64.000000"
 preserveAspectRatio="xMidYMid meet">
<metadata>
Created by potrace 1.11, written by Peter Selinger 2001-2013
</metadata>
<g transform="translate(0.000000,64.000000) scale(0.100000,-0.100000)"
fill="#000000" stroke="none">
<path d="M84 354 c-16 -24 -16 -29 -3 -53 11 -20 23 -26 47 -26 18 0 32 4 32
10 0 5 -10 10 -21 10 -30 0 -47 29 -29 50 7 8 21 14 31 13 10 -2 19 2 21 7 2
6 -11 11 -29 13 -25 3 -35 -2 -49 -24z"/>
<path d="M198 369 c-22 -12 -23 -29 -3 -29 9 0 15 -9 15 -25 0 -14 -4 -25 -10
-25 -5 0 -10 -4 -10 -10 0 -5 14 -10 31 -10 24 0 30 3 25 16 -3 9 -6 33 -6 55
0 41 -10 47 -42 28z"/>
<path d="M277 373 c-13 -12 -7 -46 10 -58 15 -11 15 -15 4 -29 -11 -14 -11
-16 3 -16 9 0 25 15 36 33 l20 32 0 -33 c0 -33 0 -33 42 -30 34 2 45 8 57 29
13 24 13 29 -2 53 -14 21 -25 26 -57 26 -31 0 -40 -4 -40 -17 -1 -17 -1 -17
-11 0 -10 17 -49 23 -62 10z m43 -29 c0 -9 -5 -14 -12 -12 -18 6 -21 28 -4 28
9 0 16 -7 16 -16z m103 -6 c8 -12 7 -21 -2 -32 -23 -28 -41 -19 -41 20 0 28 4
35 16 32 9 -2 22 -10 27 -20z"/>
<path d="M470 325 c0 -42 3 -55 15 -55 10 0 15 10 15 28 l1 27 20 -27 c29 -39
58 -38 30 1 -18 25 -19 30 -6 47 29 39 6 49 -26 12 l-18 -23 -1 23 c0 13 -6
22 -15 22 -12 0 -15 -13 -15 -55z"/>
</g>
</svg>
